<svg xmlns="http://www.w3.org/2000/svg" viewBox="0 0 390 380.93"><defs><style>.cls-1{fill:#fff;}.cls-2{fill:#1b1464;}.cls-3{fill:#1a1a1a;}.cls-4{fill:#93278f;}.cls-5{fill:#662d91;}</style></defs><title>logo</title><g id="Capa_2" data-name="Capa 2"><g id="Layer_1" data-name="Layer 1"><path class="cls-1" d="M376.16,44.25C373.1,43,300.06,14,195,14S16.9,43,13.84,44.25L4.13,48.17l.3,10.47c.06,2.06,1.7,51.12,24.91,114.18A411.42,411.42,0,0,0,83.71,274.61,382.76,382.76,0,0,0,186.91,371l8.09,5.15,8.09-5.15a382.76,382.76,0,0,0,103.2-96.36,411.42,411.42,0,0,0,54.37-101.79c23.21-63.06,24.85-112.12,24.91-114.18l.3-10.47Z"/><path d="M195,380.93l-10.27-6.54A386.84,386.84,0,0,1,80.44,277a415.1,415.1,0,0,1-54.9-102.79C2.08,110.48.44,60.84.38,58.75L0,45.47l12.32-5C15.41,39.24,89.15,9.93,195,9.93S374.59,39.24,377.68,40.49l12.32,5-.38,13.29c-.06,2.08-1.7,51.72-25.16,115.46A414.75,414.75,0,0,1,309.56,277a386.84,386.84,0,0,1-104.29,97.38ZM8.27,50.87l.22,7.66c0,2,1.65,50.38,24.66,112.89A407.37,407.37,0,0,0,87,272.21a378.88,378.88,0,0,0,102.12,95.34l5.91,3.76,5.91-3.76A378.88,378.88,0,0,0,303,272.21a407.37,407.37,0,0,0,53.82-100.79c23-62.51,24.61-110.87,24.66-112.89l.22-7.66L374.64,48c-3-1.23-75.35-30-179.64-30S18.39,46.78,15.36,48Z"/><path class="cls-2" d="M195,29C91.66,29,19.49,58.21,19.49,58.21S25,249.94,195,358.27C365.05,249.94,370.51,58.21,370.51,58.21S298.34,29,195,29Z"/><path class="cls-3" d="M195,363.07l-2.18-1.38C104,305.12,60.53,225.69,39.67,169,17.08,107.63,15.49,60.31,15.43,58.33l-.08-2.82L18,54.45C18.7,54.16,92.06,25,195,25S371.3,54.16,372,54.45l2.61,1.06-.08,2.82c-.06,2-1.65,49.3-24.24,110.69C329.47,225.69,286,305.12,197.18,361.69ZM23.69,61c.72,11.17,4.59,53.74,23.69,105.55,20.27,54.94,62.31,131.76,147.62,187,85.42-55.25,127.47-132.2,147.72-187.23,19-51.75,22.88-94.13,23.59-105.27-14-5.12-81-27.85-171.31-27.85S37.64,55.82,23.69,61Z"/><path class="cls-1" d="M76.7,104.38C80.39,98.89,89.07,90,93.86,85.7c4.62-4.11,7.66-6,15.57-8.06,1.94-.52,4.11-1.13,6.4-1.76,6.68-1.86,13.59-3.79,16.33-4,2.17-.2,4,.71,6,1.67l.79.38.14-.14c2.25-2,6.53-3.48,10.3-4.76a33.57,33.57,0,0,0,5.87-2.34c2-1.23,8.31-7.71,13.87-13.42l3.43-3.51c-3.32-6-6.32-11.47-7.37-13.39a.72.72,0,0,0-.8-.35c-4.69,1-5.79-2.72-7.32-7.86-.07-.23-.16-.5-.23-.74l-.33-.11A1.87,1.87,0,0,1,155,28a1.85,1.85,0,0,1-1.67-1.17l-2.09-5.2c-1.35-2.91,4.09-8.11,9.06-12.08s11.26-8.11,13.8-6.14l4.6,3.19a1.87,1.87,0,0,1,.75,1.9,1.93,1.93,0,0,1-1,1.28h0c0,.1,0,.22,0,.35l.68.39c4.66,2.63,8,4.54,6,8.89a.73.73,0,0,0,.16.85c1.45,1.29,5.27,4.68,9.66,8.61,4.39-3.93,8.21-7.32,9.66-8.61a.73.73,0,0,0,.16-.85c-2-4.35,1.36-6.26,6-8.89l.68-.39c0-.13,0-.25,0-.35h0a1.89,1.89,0,0,1-1-1.28,1.84,1.84,0,0,1,.74-1.9l4.61-3.19c2.53-2,8.82,2.18,13.79,6.14s10.41,9.17,9.06,12.08l-2.09,5.2A1.85,1.85,0,0,1,235,28a1.87,1.87,0,0,1-1.48-.69l-.33.11c-.07.24-.16.51-.23.74-1.53,5.14-2.63,8.85-7.32,7.86a.72.72,0,0,0-.8.35c-1.05,1.92-4.05,7.39-7.37,13.39l3.43,3.51c5.56,5.71,11.87,12.19,13.87,13.42A33.57,33.57,0,0,0,240.66,69c3.78,1.28,8.05,2.74,10.3,4.76l.14.14.79-.38c1.94-1,3.78-1.87,5.95-1.67,2.74.25,9.65,2.18,16.33,4,2.3.63,4.46,1.24,6.4,1.76,7.91,2.11,10.95,4,15.57,8.06,4.79,4.25,13.47,13.19,17.16,18.68,4.84.39,32.59.16,51.09-.08.19-1,.39-1.93.57-2.87-16.94.22-42.77.45-50.12.17-4.18-5.75-12.21-14-16.79-18-4.78-4.25-8.16-6.39-16.74-8.69-1.93-.51-4.09-1.11-6.39-1.76-7.11-2-13.82-3.84-16.81-4.12a12.34,12.34,0,0,0-6.66,1.55c-2.71-1.82-6.48-3.11-9.87-4.26a35.55,35.55,0,0,1-5.29-2.06c-1.69-1-8.69-8.23-13.32-13l-1.95-2c2.34-4.24,4.43-8,5.64-10.24,5.19.3,7.16-4,8.5-8.19a4.7,4.7,0,0,0,4.19-2.95l2-4.87c2.65-4.93-4.23-11.27-9.8-15.71a49.72,49.72,0,0,0-8.75-5.84c-4.53-2.21-7.18-1.53-8.7-.25l-4.36,3A4.71,4.71,0,0,0,207.76,9c-3.8,2.24-7.56,5.12-6.1,10.11-1.52,1.35-3.91,3.47-6.66,5.93l-6.65-5.93c1.45-5-2.3-7.86-6.11-10.11a4.71,4.71,0,0,0-1.93-4.74l-4.36-3c-1.52-1.27-4.17-1.95-8.7.26a49.72,49.72,0,0,0-8.75,5.84,50.24,50.24,0,0,0-7.64,7.22c-3.17,3.93-3.09,6.66-2.19,8.43l2,4.93a4.7,4.7,0,0,0,4.19,2.95c1.34,4.2,3.3,8.5,8.5,8.19,1.21,2.21,3.29,6,5.64,10.24l-2,2c-4.63,4.75-11.62,11.92-13.31,13a35.55,35.55,0,0,1-5.29,2.06c-3.39,1.15-7.16,2.44-9.87,4.26A12.34,12.34,0,0,0,131.89,69c-3,.28-9.7,2.15-16.83,4.13-2.28.64-4.44,1.24-6.37,1.75-8.58,2.3-12,4.44-16.73,8.69-4.59,4.07-12.61,12.29-16.8,18-7.35.28-33.18.05-50.12-.17.18.94.38,1.91.57,2.87C44.11,104.54,71.86,104.77,76.7,104.38Z"/><path class="cls-1" d="M168.59,134.75l0,0,0,0Z"/><path class="cls-1" d="M221.43,134.72l0,0h0Z"/><path class="cls-1" d="M349.8,158.37c-12.12-.45-24.83-.53-30.92-.47l7.31,9.17c1.52,1.9,5.26,15.92-14.63,32.23-20.31,15.74-33.15,9-34.66,7.06L269.41,197a4.09,4.09,0,0,1-.79-1.67h0a8.13,8.13,0,0,0-1.59-3.37l-6.73-8.45c-.29.17-.55.38-.86.54-3.82,1.86-11.56,1.67-13.95,1.38-3.23-.38-7.53-4-8-7.65a7.78,7.78,0,0,1,1.28-5.42c-1.61-.05-3.11-.16-4.52-.28-4.78-.43-8.43-2.81-11.17-7.3-.87-1.42-3.19-5.23-1.74-8.66h-.65c-2.64.08-6.24.19-9.79-4-3.86-4.55-4.83-9-2.74-12.62a14.27,14.27,0,0,1,.87-1.34,12.58,12.58,0,0,1-9.45-5.13c-2.82-3.87-2.12-9.74-1.12-12,1.2-2.75,4.14-5.76,5.3-6.88-.39-.64-.77-1.27-1.11-1.89-1.48-2.64-1.94-7.13-2.35-11.09a33.92,33.92,0,0,0-1-6.25A59,59,0,0,0,195,87.14a59,59,0,0,0-4.38,7.74,33.92,33.92,0,0,0-1,6.25c-.41,4-.87,8.45-2.35,11.09-.34.62-.72,1.25-1.11,1.89,1.16,1.12,4.1,4.13,5.3,6.88,1,2.28,1.7,8.15-1.12,12a12.58,12.58,0,0,1-9.45,5.13c.28.39.57.81.88,1.34,2.08,3.59,1.11,8.07-2.75,12.62-3.55,4.19-7.15,4.08-9.79,4h-.65c1.45,3.43-.87,7.24-1.74,8.66-2.74,4.49-6.39,6.87-11.17,7.3-1.41.12-2.91.23-4.52.28a7.78,7.78,0,0,1,1.28,5.42c-.42,3.67-4.72,7.27-8,7.65-2.39.29-10.13.48-13.95-1.38-.31-.16-.57-.37-.86-.54L123,191.93a8.13,8.13,0,0,0-1.59,3.37h0a4.09,4.09,0,0,1-.79,1.67l-7.49,9.39c-1.51,1.9-14.35,8.68-34.66-7.06C58.55,183,62.29,169,63.81,167.07l7.31-9.17c-6.09-.06-18.8,0-30.92.47l1,2.82c8.66-.31,17.57-.43,24-.45l-3.63,4.54c-3.07,3.86-5.22,19.61,15.05,36.23l.06.05c10.62,8.22,19.7,10.76,26.44,10.76,6.42,0,10.72-2.3,12.22-4.18l7.48-9.38a6.9,6.9,0,0,0,1.35-2.87,5.41,5.41,0,0,1,1-2.18l5.29-6.63a31.75,31.75,0,0,0,10.07,1.36,40,40,0,0,0,4.28-.2c4.36-.51,9.88-5.06,10.46-10.17a11.12,11.12,0,0,0-.06-3.11l.71-.06c5.67-.51,10.16-3.42,13.36-8.66a15.89,15.89,0,0,0,2.61-7.31,13,13,0,0,0,9.31-5c4-4.66,5.33-9.56,4-13.78a15.12,15.12,0,0,0,7.48-5.47A13.48,13.48,0,0,0,195,129a13.36,13.36,0,0,0,2.31,5.75,15.1,15.1,0,0,0,7.49,5.47c-1.36,4.22,0,9.12,4,13.78a13,13,0,0,0,9.31,5,16,16,0,0,0,2.61,7.32c3.2,5.23,7.69,8.14,13.36,8.65l.71.06a11.12,11.12,0,0,0-.06,3.11c.58,5.11,6.1,9.66,10.46,10.17a40,40,0,0,0,4.28.2,31.75,31.75,0,0,0,10.07-1.36l5.29,6.63a5.41,5.41,0,0,1,1,2.18,6.9,6.9,0,0,0,1.35,2.87l7.48,9.38c1.5,1.88,5.8,4.18,12.22,4.18,6.74,0,15.82-2.54,26.44-10.76l.06-.05c20.27-16.62,18.12-32.37,15.05-36.23l-3.63-4.54c6.46,0,15.37.14,24,.45ZM195.89,119.84a14.16,14.16,0,0,0-.89,3.3,14.16,14.16,0,0,0-.89-3.3,24.48,24.48,0,0,0-4.34-6.16l0-.06c1.76-3.16,2.26-8,2.69-12.2a38,38,0,0,1,.83-5.62A25.87,25.87,0,0,1,195,92.63a23.76,23.76,0,0,1,1.68,3.18,37.4,37.4,0,0,1,.83,5.61c.43,4.24.93,9,2.69,12.2l0,.06A24.26,24.26,0,0,0,195.89,119.84Z"/><path class="cls-1" d="M132.07,166.39h0Z"/><path class="cls-1" d="M125.12,175.43l-6.82,8.86,6.82-8.37C125.12,175.76,125.11,175.59,125.12,175.43Z"/><path class="cls-1" d="M167.76,120l-10.9,14.19c.74-.06,1.52-.08,2.31-.08l11-13.46c.82.19,1.64.34,2.44.46a27.13,27.13,0,0,1,8.1-3.93,39.25,39.25,0,0,0,4.21-6.26c1.2-2.14,1.65-6.51,2-10A34.59,34.59,0,0,1,188,94c.54-1.59,2.46-4.83,5.36-9.43l-1.26-2c-2.39,3.63-4.38,6.68-4.92,7.6-2,3.42-2.5,9.38-2.5,9.38s-1.06-4.75-.07-8.22c-1.83,2.87-1.36,11.24-2.92,15.83s-4.74,9.36-7.82,11.5-22.41-7.28-22.41-7.28S160,117.34,167.76,120Z"/><path class="cls-1" d="M132.72,98.16a9.57,9.57,0,0,1-1.43,2.43l-49,61.52s-3.91,4.91-5.37,2.13c1.14,5.11,5.25,13.63,17.22,21.47,6.5,4.25,12,6.25,16.43,7h0c.72.11,2.75.65-4,9.34,5.29-6,6.57-7.27,6.84-9a20.48,20.48,0,0,0,2.2,0l0,.44a2,2,0,0,1-.44,1.08l-5.5,6.9s-1.26,2.33-5.55,1.54c-6.2-1.14-17-5.23-27.42-17-1.54-2.34-.08-3.6,1.31-5.35,2.71-3.4,3-3.81,3-3.81-3.73-4.06-4.56-7.24-4.56-7.24l-3.58,4.48s-3.07,3.78-4.88,0,.14-6.17.14-6.17,4.06-6.37,6.3-4.62a15.52,15.52,0,0,1-.36-4.41l-.14.07a1.28,1.28,0,0,0-.45.35L66,168.76a3.18,3.18,0,0,0-.19.45c-.12,4.19,1.84,12.89,16.07,24.65,15.75,13,25.69,11.64,29.4,10.34l7.14-8.95a1.36,1.36,0,0,0,.25-.53,10.83,10.83,0,0,1,2.13-4.52l6.71-8.41a8.89,8.89,0,0,1-1.42-2l-5.64,7.08c-1.87,2.3-8.43,8.86-25.61-1.79-6.24-4.44-8-6.35-9.14-7.78a4.38,4.38,0,0,1-.16-5.3c7.78-11.07,54.33-67.71,54.33-67.71a30.84,30.84,0,0,0,7.43,4,52.65,52.65,0,0,1-9.53-10.07A30.69,30.69,0,0,1,132.72,98.16Z"/><path class="cls-1" d="M215.46,47.66c3.16-5.7,6-10.82,7-12.66a3.48,3.48,0,0,1,.41-.52,53.64,53.64,0,0,1-8.17-5.1,19.26,19.26,0,0,0,5.8,5.48c-2.23,3.6-4.46,7.46-6.58,11.24Z"/><path class="cls-1" d="M145.77,150.34a7.37,7.37,0,0,1-.52-1.1l-.73.95C144.94,150.23,145.36,150.28,145.77,150.34Z"/><path class="cls-1" d="M162.47,134.19c1,.07,1.93.15,2.79.24l2.32-2.91c0-.17-.05-.34-.05-.52a11.73,11.73,0,0,1,.56-3.86Z"/><path class="cls-1" d="M162,75.75l-.2-.28c2.65-2.18,9.41-7.84,16.92-14.59-.66-1.17-1.35-2.39-2.05-3.65C170,64.6,162.87,72.35,160.81,74.59c-2.15-1.28-5.94-.83-9.41,1.33-.12.07-.23.16-.35.24l.42,0c.5,0,1,.08,1.47.13l.54.06a16.38,16.38,0,0,1,1.75.31h.06a10.59,10.59,0,0,1,1.62.53l.18,0s0,0,.07.06A6.77,6.77,0,0,1,160,79.55a4.64,4.64,0,0,1,.79,2.42C162.47,79.79,163.05,77.42,162,75.75Z"/><path class="cls-1" d="M209,26.52c-1.35-.5-5,2.31-9.36,6.45l3.45,3.11C211.53,25.82,209,26.52,209,26.52Z"/><path class="cls-1" d="M163.64,82.78a3.46,3.46,0,1,0,5.17-1A3.75,3.75,0,0,0,163.64,82.78Z"/><path class="cls-1" d="M117,138.75c-3.76,4.74-7.52,9.49-11.22,14.29s-7.36,9.62-10.94,14.5q5.94-6.87,11.69-13.9c3.86-4.68,7.65-9.4,11.43-14.12s7.52-9.5,11.22-14.29,7.36-9.62,11-14.51q-5.94,6.89-11.7,13.91C124.57,129.3,120.78,134,117,138.75Z"/><path class="cls-1" d="M146.15,74.63c3-1.25,12.13-2.87,15.3-6.41,2.9-3.24,8.18-9.09,13.2-14.65-.22-.38-.43-.77-.64-1.15-4.67,4.66-9.61,9.8-13.08,13.94-3.1,3.72-12.13,5.46-17.24,8.15-.42.22-.84.5-1.26.77l.1,0a14,14,0,0,0,1.38.31C144.74,75.22,145.51,74.9,146.15,74.63Z"/><path class="cls-1" d="M209.12,18.78c2,2.75,5.59-1.84,6-2.75a.78.78,0,0,0,.05-.14,2.47,2.47,0,0,1-.41-.33,3.9,3.9,0,0,1-.92-2.42,3.76,3.76,0,0,1-1.17-.5l-.44.25c-.6.33-1.12.64-1.6.92C209,15.11,207.89,17.06,209.12,18.78Z"/><path class="cls-1" d="M230.48,26.85a3.46,3.46,0,0,1-.7-.94,15.06,15.06,0,0,1-1.46,3.59,16.79,16.79,0,0,1-2.65,3,4,4,0,0,0,1.91.28A1.81,1.81,0,0,0,228.7,32a33.48,33.48,0,0,0,1.63-4.68Z"/><path class="cls-1" d="M87.53,200.87l-1.2-.77-.59-.38-.58-.42c-.76-.57-1.54-1.1-2.29-1.68l-2.21-1.78a75.44,75.44,0,0,1-8.11-8q-1.87-2.15-3.55-4.46a27.79,27.79,0,0,1-2.88-4.92,31.53,31.53,0,0,0,5.69,10,59.73,59.73,0,0,0,8.06,8.31,49,49,0,0,0,9.65,6.39,33.45,33.45,0,0,0,11,3.45A44.11,44.11,0,0,1,90,202.33C89.14,201.86,88.31,201.41,87.53,200.87Z"/><path class="cls-1" d="M228,24.79a2.67,2.67,0,0,1-.36-.14,2.44,2.44,0,0,1-1.09-1.58c-.12-.42-.18-.54-.32-.62a1.09,1.09,0,0,0-.63-.07c-1.76.57-6.41,4.87-3.92,7.77S227.62,26.12,228,24.79Z"/><path class="cls-1" d="M234.85,23.89a.2.2,0,0,1,0,.07h0A.13.13,0,0,0,234.85,23.89Z"/><path class="cls-4" d="M215.32,9.77a1.92,1.92,0,0,1,1.18.14,1.79,1.79,0,0,1,.71.74,1.53,1.53,0,0,0-.84-.22,1.12,1.12,0,0,0-.63.34l-.07.07a1.63,1.63,0,0,1,.55.53,3.22,3.22,0,0,1,.37,1.45,1.55,1.55,0,0,0,.2.87c.07.07.19.08.54.11h.16a2.65,2.65,0,0,1,.26-.21,2.46,2.46,0,0,1,1.06-.38,1.82,1.82,0,0,1,1,.22,2.64,2.64,0,0,1,.66.57,2.08,2.08,0,0,0-.78,0,1,1,0,0,0-.55.27,1.4,1.4,0,0,0-.09.17,1.15,1.15,0,0,1,.17.14A3,3,0,0,1,220,16.3c.07.48.11.67.31.82a1.3,1.3,0,0,0,.59.27,4.87,4.87,0,0,1,1.14-.78,1.65,1.65,0,0,1,1.11-.11,1.76,1.76,0,0,1,.8.51,1.56,1.56,0,0,0-.81,0,.86.86,0,0,0-.45.43,2.18,2.18,0,0,0-.09.23l.36.18.09.06.07.07a3.2,3.2,0,0,1,.78,1.45,1.62,1.62,0,0,0,.56,1c.19.16.38.16.85.12.66-.91,1.53-1.58,2.39-1.17.67.32.28,1.23.17,1.49s-.11.27-.17.4a3.07,3.07,0,0,1,.65,1.27c.1.34.15.46.23.5a.8.8,0,0,0,.43.06c1.11-1.39,2.18-1.67,2.71-1.11.25.27,0,.77-.32,1.32a2.73,2.73,0,0,1,.8,1.12c0,.08.08.18.12.26.88-1.49,1.87-1.92,2.47-1.46a.48.48,0,0,1,.16.35c.14-1.62-1.29-1.73-2.42-1.29.06-1.42-1.31-1.75-3-1.12.28-2.51-2-3-4.19-2.78a2.77,2.77,0,0,0-1-3.35h0c-2-1.65-6.71-5.71-8-8.56L214,8.07a3,3,0,0,1,.3,1.94v0A9.27,9.27,0,0,1,215.32,9.77Z"/><path class="cls-5" d="M218.2,5.69c-.63.78,2.86,4.59,7.78,8.51s9.41,6.47,10,5.69-2.87-4.59-7.78-8.51S218.82,4.91,218.2,5.69Z"/><path class="cls-3" d="M188.81,122.71c-.15,2.36-.81,4.62-2.07,5.82a4.21,4.21,0,0,0-1.15-2.93c-2.28-2.41-7.12-2.2-7.33-2.18l-.44,0-.21.39a16.12,16.12,0,0,0-2.22,7.42c-2.9-.17-3.41-3-2.9-5.64a5.71,5.71,0,0,0-1.81,5,4.93,4.93,0,0,0,1.64,3.14c1.44,1.15,4,1.55,8,1.26a9.53,9.53,0,0,0,7.51-3.88C189.77,128.44,189.52,124,188.81,122.71Zm-4.38,4a2.87,2.87,0,0,1,.72,2.39,4,4,0,0,1-1.38,2.89c-1.6,1.28-4.45,1.08-6.75.83a1.77,1.77,0,0,1,0-.23,16.7,16.7,0,0,0,1.87-.07,10.5,10.5,0,0,0,2.22-.43,5.48,5.48,0,0,0,2-1.08,3.35,3.35,0,0,0,1.08-1.89,3,3,0,0,1-1.37,1.48,4.64,4.64,0,0,1-1.91.51,9.7,9.7,0,0,1-2-.08,17,17,0,0,1-1.86-.37,14.72,14.72,0,0,1,1.75-5.65C180.23,125,183.11,125.29,184.43,126.69Z"/><path class="cls-3" d="M179.37,121.09h0Z"/><path class="cls-1" d="M150.09,177.48a5.31,5.31,0,0,0,0-.68c-.56,1.91-2.07,4.26-6.12,5.46h0c-2.31.46-9.13.3-12-1.11a7.53,7.53,0,0,1-1.53-1,5.4,5.4,0,0,1-2.05-5.25,6.92,6.92,0,0,1,3.83-5.25c-1.15,1.35-2,3.16-1.37,4.86a2.94,2.94,0,0,0,.44.82,9.63,9.63,0,0,1,3.05-4.67l.29-.22.36.08c2.32.49,5.45,1.89,6.61,4.22a4.19,4.19,0,0,1,.08,3.53,4.45,4.45,0,0,0,3-1.1c1.33-1.56,1.39-4-2-4.82a28.27,28.27,0,0,1-3.89-1.22,11,11,0,0,1-4.36-2c-.09-.07-.16-.15-.25-.23l-1.52-.18c-2.5.63-4.42,2.94-5,6.08-.56,2.85,1,5.63,4,7.09s9.66,1.51,12.62,1.16C146.49,182.77,149.81,180,150.09,177.48Z"/><path class="cls-1" d="M135,172.19a9.57,9.57,0,0,0-2.6,5c2.27,1,4.7,1.31,6.83.15-1.25,2.13-4.82,1.81-7.1,1.32,0,0,0,.07,0,.1,1.75.82,4.22,1.46,6.07.84a3.18,3.18,0,0,0,1.94-1.74,2.56,2.56,0,0,0,0-2.36C139.36,173.88,137.07,172.7,135,172.19Z"/><path class="cls-1" d="M164.83,163.51a13.85,13.85,0,0,0,1.59-3.43c-1.44,3.13-4.5,8-11,8.8a44.33,44.33,0,0,1-15.71-.75,8,8,0,0,1-3.46-1.59,7.57,7.57,0,0,1-2.36-7,7.33,7.33,0,0,1,2.29-4.54,6.38,6.38,0,0,1,1.6-1c-1.65,1.95-2.7,5.12-1.56,7.38a13.47,13.47,0,0,1,3-6.78l.26-.26.36,0c4.25.3,7.38,1.61,8.81,3.68a5.38,5.38,0,0,1,.59,4.81,9.71,9.71,0,0,1-.8,1.91c5.36.29,12.75-.3,11.9-4.76-.44-2.26-3.08-3.42-8.05-5.09a20.83,20.83,0,0,1-2.7-1.1h0a9,9,0,0,1-.9-.52h-.05a23.77,23.77,0,0,0-9-.68c-2.54.46-5.73,2-6.49,6.81-.46,2.9.38,8.16,6.44,9.46a50.07,50.07,0,0,0,15.94.76C159.46,169.32,162.52,167.3,164.83,163.51Z"/><path class="cls-1" d="M189.31,122a22.61,22.61,0,0,0-4.33-5.68l-1,1.26.27.11c.6.26,1.19.53,1.78.81-.65.08-1.29.18-1.92.28-.32.06-.63.11-.94.18s-.61.13-.89.21l-.36.12c-3.62,1.16-12.11,3.88-12,11.72a4.24,4.24,0,0,0,1.29,3.24,5.59,5.59,0,0,0,2.09,1.12l4.65.57c.76,0,1.55,0,2.41-.08a10.33,10.33,0,0,0,8.1-4.2C190.56,128.7,190.14,123.85,189.31,122Zm-9.94-.86h0Zm.92,13.93c-4,.29-6.53-.11-8-1.26a4.93,4.93,0,0,1-1.64-3.14,5.71,5.71,0,0,1,1.81-5c-.51,2.66,0,5.47,2.9,5.64a16.12,16.12,0,0,1,2.22-7.42l.21-.39.44,0c.21,0,5.05-.23,7.33,2.18a4.21,4.21,0,0,1,1.15,2.93c1.26-1.2,1.92-3.46,2.07-5.82.71,1.27,1,5.73-1,8.43A9.53,9.53,0,0,1,180.29,135Z"/><path class="cls-1" d="M177.51,149.13a9.92,9.92,0,0,1-8.15,3.79c-.48,0-1,0-1.45,0a87.53,87.53,0,0,1-15.5-1.44,6.39,6.39,0,0,1-2.77-1.26c-1.54-1.28-2.07-3.42-1.47-5.89a8.82,8.82,0,0,1,6.12-6.48c-2.26,2.13-4,5.29-3.07,8.33.88-3,2.72-6,4.48-7.35l.26-.2.32,0c3.05.39,8.44,1.48,10.29,4.47a4.38,4.38,0,0,1,.33,3.91,6.75,6.75,0,0,1-1.65,2.68,27.68,27.68,0,0,0,4.39-.09c2-.29,5.05-3.47,2.59-8,1.42,2,2.53,4.5.67,7.12a3.66,3.66,0,0,0,2-2.21c1.56-4.56-1.33-7.72-6.55-9.43-.49,0-1.08-.09-1.83-.17-3.24-.33-8.66-.88-11.67-.14a9.72,9.72,0,0,0-7.47,7.31,7.08,7.08,0,0,0,.61,5.42,6.31,6.31,0,0,0,4.24,2.7,89.79,89.79,0,0,0,15.67,1.46c.47,0,1,0,1.41,0,2.51.07,5.09.15,7.9-3.16a12.25,12.25,0,0,0,3.21-6.5A14.66,14.66,0,0,1,177.51,149.13Z"/><path class="cls-1" d="M165.22,144c-1.06-1.7-4.33-3.07-8.8-3.68a14.86,14.86,0,0,0-3.73,6.48c5.49,1,10.1,1.25,11.8-.81l0,.13c-1,2.83-5,4.16-10.45,3.63,6.79,1.23,10.18.28,11.4-3.2A2.83,2.83,0,0,0,165.22,144Z"/><path class="cls-1" d="M178.9,131a9.7,9.7,0,0,0,2,.08,4.64,4.64,0,0,0,1.91-.51,3,3,0,0,0,1.37-1.48,3.35,3.35,0,0,1-1.08,1.89,5.48,5.48,0,0,1-2,1.08,10.5,10.5,0,0,1-2.22.43,16.7,16.7,0,0,1-1.87.07,1.77,1.77,0,0,0,0,.23c2.3.25,5.15.45,6.75-.83a4,4,0,0,0,1.38-2.89,2.87,2.87,0,0,0-.72-2.39c-1.32-1.4-4.2-1.69-5.64-1.7a14.72,14.72,0,0,0-1.75,5.65A17,17,0,0,0,178.9,131Z"/><path class="cls-1" d="M146.26,161.75c-.7,2.61-1.79,4.46-8.47,3.31,0,0,0,.09,0,.13,5.68,1.57,8.53,1.73,9.87-2.74a3.84,3.84,0,0,0-.37-3.46c-1.1-1.58-3.72-2.66-7.23-3a13,13,0,0,0-2.44,7.05C138.74,163.51,144,165.33,146.26,161.75Z"/><path class="cls-1" d="M71,135.85c3,6.49,4.15,9.31,8,9s8.61-3.52,11.73-18.69c7.68-3.44,11-6.89,13.08-12.22,1.1-2.81,3.14-7.27,1.75-10.52-1.81-4.24-7.39-7-7.39-7s9.35,1.77,12,1.58c4.08-.29,10.13-1.69,14.52-6.92a10,10,0,0,1-3.27-4.78s10.77,5.45,20.08,3.41c4.52-1,12.56-2.54,15.54-8.24l.08.09c.22.3.29,1.11-.2,2.43-1.39,3.69-6,8.28-11.45,9.57-8.13,1.94-13.28.84-13.49.79l-1.26-.33-1,.93s-4.81,3.82-6.38,5.07a21.76,21.76,0,0,0,7.21-4.21l.47-.45.64.15c.05,0,5.46,1.26,14.05-.79,6-1.43,10.81-6.38,12.28-10.31.58-1.53.6-2.79.07-3.54a4.25,4.25,0,0,0-1.47-1.25c-3.89,1.74-11.33,2.68-15,1.81a6.72,6.72,0,0,1-2.61-1.1A2.36,2.36,0,0,1,138,79a2.92,2.92,0,0,1,.85-2.53l-1.81-.86c-1.77-.87-3.17-1.56-4.67-1.42-2.53.23-9.64,2.21-15.91,4-2.3.64-4.47,1.25-6.42,1.77-7.5,2-10.23,3.64-14.61,7.54-4.93,4.39-13.81,13.61-17,18.67l-.29.45h0a27.57,27.57,0,0,0-3,5.54A19.87,19.87,0,0,0,73.62,119a20.52,20.52,0,0,1,.29-7.19,27.6,27.6,0,0,1,1.58-5c-8.33.32-36.52,0-49.4-.14,1.34,6.5,2.95,13.51,4.88,20.93l26.1.9s-14.63.21-25.77.41c.39,1.47.8,3,1.21,4.48l32.85.18L33,135.12q1.5,5.35,3.22,11c12.07-.32,25.49-.76,27.16-1.06C68.56,144.09,69.51,139.28,71,135.85Z"/><path class="cls-1" d="M72.34,155.52a160.26,160.26,0,0,0-31.8-1.4l-1.75.06.6,1.81C52.62,155.48,66.65,155.43,72.34,155.52Z"/><path class="cls-1" d="M149,78.45a42.25,42.25,0,0,1-5.31-.43,17.32,17.32,0,0,1-2.28-.55l-.17,0a3.27,3.27,0,0,0-.91,1.07,3.71,3.71,0,0,0,1.7.67c2.16.51,6.5.27,10.08-.54H152C151.08,78.54,150.07,78.5,149,78.45Z"/><path class="cls-3" d="M71.12,157.9l-7.31,9.17C62.29,169,58.55,183,78.44,199.3c20.31,15.74,33.15,9,34.66,7.06l7.49-9.39a4.09,4.09,0,0,0,.79-1.67h0a8.13,8.13,0,0,1,1.59-3.37l6.73-8.45c.29.17.55.38.86.54,3.82,1.86,11.56,1.67,13.95,1.38,3.23-.38,7.53-4,8-7.65a7.78,7.78,0,0,0-1.28-5.42c1.61-.05,3.11-.16,4.52-.28,4.78-.43,8.43-2.81,11.17-7.3.87-1.42,3.19-5.23,1.74-8.66h.65c2.64.08,6.24.19,9.79-4,3.86-4.55,4.83-9,2.75-12.62-.31-.53-.6-.95-.88-1.34a12.58,12.58,0,0,0,9.45-5.13c2.82-3.87,2.12-9.74,1.12-12-1.2-2.75-4.14-5.76-5.3-6.88.39-.64.77-1.27,1.11-1.89,1.48-2.64,1.94-7.13,2.35-11.09a33.92,33.92,0,0,1,1-6.25A59,59,0,0,1,195,87.14a59,59,0,0,1,4.38,7.74,33.92,33.92,0,0,1,1,6.25c.41,4,.87,8.45,2.35,11.09.34.62.72,1.25,1.11,1.89-1.16,1.12-4.1,4.13-5.3,6.88-1,2.28-1.7,8.15,1.12,12a12.58,12.58,0,0,0,9.45,5.13,14.27,14.27,0,0,0-.87,1.34c-2.09,3.59-1.12,8.07,2.74,12.62,3.55,4.19,7.15,4.08,9.79,4h.65c-1.45,3.43.87,7.24,1.74,8.66,2.74,4.49,6.39,6.87,11.17,7.3,1.41.12,2.91.23,4.52.28a7.78,7.78,0,0,0-1.28,5.42c.42,3.67,4.72,7.27,8,7.65,2.39.29,10.13.48,13.95-1.38.31-.16.57-.37.86-.54l6.73,8.45a8.13,8.13,0,0,1,1.59,3.37h0a4.09,4.09,0,0,0,.79,1.67l7.49,9.39c1.51,1.9,14.35,8.68,34.66-7.06C331.45,183,327.71,169,326.19,167.07l-7.31-9.17c6.09-.06,18.8,0,30.92.47.27-.79.55-1.59.81-2.38-13.23-.51-27.26-.56-32.95-.47a160.26,160.26,0,0,1,31.8-1.4l1.75.06c.9-2.73,1.77-5.44,2.59-8.1-12.07-.32-25.49-.76-27.16-1.06-5.2-.93-6.15-5.74-7.62-9.17-3,6.49-4.15,9.31-8,9s-8.61-3.52-11.73-18.69c-7.68-3.44-11-6.89-13.08-12.22-1.1-2.81-3.14-7.27-1.75-10.52,1.81-4.24,7.39-7,7.39-7s-9.35,1.77-12,1.58c-4.08-.29-10.12-1.69-14.52-6.92a10,10,0,0,0,3.27-4.78s-10.76,5.45-20.08,3.41C244,88.79,236,87.24,233,81.54l-.08.09c-.22.3-.29,1.11.2,2.43,1.39,3.69,6.05,8.28,11.45,9.57,8.13,1.94,13.28.84,13.49.79l1.26-.33,1,.93,6.39,5.07a21.74,21.74,0,0,1-7.22-4.21l-.47-.45-.64.15c-.05,0-5.46,1.26-14.05-.79-6-1.43-10.81-6.38-12.28-10.31-.58-1.53-.6-2.79-.07-3.54a4.25,4.25,0,0,1,1.47-1.25c3.89,1.74,11.33,2.68,15,1.81a6.72,6.72,0,0,0,2.61-1.1A2.36,2.36,0,0,0,252,79a2.92,2.92,0,0,0-.85-2.53l1.81-.86c1.77-.87,3.17-1.56,4.67-1.42,2.53.23,9.64,2.21,15.91,4,2.3.64,4.47,1.25,6.42,1.77,7.5,2,10.23,3.64,14.61,7.54,4.93,4.39,13.81,13.61,17.05,18.67l.29.45h0a27.57,27.57,0,0,1,3,5.54,19.87,19.87,0,0,1,1.43,6.85,20.52,20.52,0,0,0-.29-7.19,27.6,27.6,0,0,0-1.58-5c8.33.32,36.52,0,49.4-.14.17-.81.32-1.6.48-2.39-18.5.24-46.25.47-51.09.08C309.61,98.89,300.93,90,296.14,85.7c-4.62-4.11-7.66-6-15.57-8.06-1.94-.52-4.1-1.13-6.4-1.76-6.68-1.86-13.59-3.79-16.33-4-2.17-.2-4,.71-5.95,1.67l-.79.38-.14-.14c-2.25-2-6.52-3.48-10.3-4.76a33.57,33.57,0,0,1-5.87-2.34c-2-1.23-8.31-7.71-13.87-13.42l-3.43-3.51c3.32-6,6.32-11.47,7.37-13.39a.72.72,0,0,1,.8-.35c4.69,1,5.79-2.72,7.32-7.86.07-.23.16-.5.23-.74l.33-.11A1.87,1.87,0,0,0,235,28a1.85,1.85,0,0,0,1.67-1.17l2.09-5.2c1.35-2.91-4.09-8.11-9.06-12.08S218.46,1.4,215.93,3.37l-4.61,3.19a1.84,1.84,0,0,0-.74,1.9,1.89,1.89,0,0,0,1,1.28h0c0,.1,0,.22,0,.35l-.68.39c-4.66,2.63-8,4.54-6,8.89a.73.73,0,0,1-.16.85c-1.45,1.29-5.27,4.68-9.66,8.61-4.39-3.93-8.21-7.32-9.66-8.61a.73.73,0,0,1-.16-.85c2-4.35-1.36-6.26-6-8.89l-.68-.39c0-.13,0-.25,0-.35h0a1.93,1.93,0,0,0,1-1.28,1.87,1.87,0,0,0-.75-1.9l-4.6-3.19c-2.54-2-8.83,2.18-13.8,6.14s-10.41,9.17-9.06,12.08l2.09,5.2A1.85,1.85,0,0,0,155,28a1.87,1.87,0,0,0,1.48-.69l.33.11c.07.24.16.51.23.74,1.53,5.14,2.63,8.85,7.32,7.86a.72.72,0,0,1,.8.35c1.05,1.92,4.05,7.39,7.37,13.39l-3.43,3.51c-5.56,5.71-11.87,12.19-13.87,13.42A33.57,33.57,0,0,1,149.34,69c-3.77,1.28-8.05,2.74-10.3,4.76l-.14.14-.79-.38c-1.94-1-3.78-1.87-6-1.67-2.74.25-9.65,2.18-16.33,4-2.29.63-4.46,1.24-6.4,1.76-7.91,2.11-11,4-15.57,8.06C89.07,90,80.39,98.89,76.7,104.38c-4.84.39-32.59.16-51.09-.08.16.79.31,1.58.48,2.39,12.88.16,41.07.46,49.4.14a27.6,27.6,0,0,0-1.58,5,20.52,20.52,0,0,0-.29,7.19,19.87,19.87,0,0,1,1.43-6.85,27.57,27.57,0,0,1,3-5.54h0l.29-.45c3.24-5.06,12.12-14.28,17-18.67,4.38-3.9,7.11-5.53,14.61-7.54,2-.52,4.12-1.13,6.42-1.77,6.27-1.74,13.38-3.72,15.91-4,1.5-.14,2.9.55,4.67,1.42l1.81.86A2.92,2.92,0,0,0,138,79a2.36,2.36,0,0,0,.9,1.37,6.72,6.72,0,0,0,2.61,1.1c3.72.87,11.16-.07,15-1.81A4.25,4.25,0,0,1,158,80.94c.53.75.51,2-.07,3.54-1.47,3.93-6.27,8.88-12.28,10.31-8.59,2-14,.8-14.05.79l-.64-.15-.47.45a21.76,21.76,0,0,1-7.21,4.21c1.57-1.25,6.36-5,6.38-5.07l1-.93,1.26.33c.21,0,5.36,1.15,13.49-.79,5.41-1.29,10.06-5.88,11.45-9.57.49-1.32.42-2.13.2-2.43l-.08-.09c-3,5.7-11,7.25-15.54,8.24-9.31,2-20.08-3.41-20.08-3.41a10,10,0,0,0,3.27,4.78c-4.39,5.23-10.44,6.63-14.52,6.92-2.62.19-12-1.58-12-1.58s5.58,2.73,7.39,7c1.39,3.25-.65,7.71-1.75,10.52-2.1,5.33-5.4,8.78-13.08,12.22-3.12,15.17-7.9,18.43-11.73,18.69s-4.94-2.55-8-9c-1.47,3.43-2.42,8.24-7.62,9.17-1.67.3-15.09.74-27.16,1.06.82,2.66,1.69,5.37,2.59,8.1l1.75-.06a160.26,160.26,0,0,1,31.8,1.4c-5.69-.09-19.72,0-32.95.47.26.79.54,1.59.81,2.38C52.32,157.92,65,157.84,71.12,157.9ZM245.77,183c-2.26-.26-5.57-3.06-5.86-5.55a5.31,5.31,0,0,1,0-.68c.56,1.91,2.07,4.26,6.12,5.46h0c2.31.46,9.13.3,12-1.11a7.27,7.27,0,0,0,1.53-1,5.4,5.4,0,0,0,2.05-5.25,6.92,6.92,0,0,0-3.83-5.25c1.15,1.35,2,3.16,1.37,4.86a2.94,2.94,0,0,1-.44.82,9.63,9.63,0,0,0-3.05-4.67l-.29-.22-.36.08c-2.32.49-5.45,1.89-6.61,4.22a4.15,4.15,0,0,0-.07,3.53,4.46,4.46,0,0,1-3-1.1c-1.33-1.56-1.39-4,2-4.82a28.27,28.27,0,0,0,3.89-1.22,11,11,0,0,0,4.36-2c.09-.07.16-.15.25-.23l1.52-.18c2.5.63,4.42,2.94,5,6.08.56,2.85-1,5.63-4,7.09S248.73,183.38,245.77,183Zm-11.26-13.36c-4-.35-7-2.37-9.34-6.16a13.85,13.85,0,0,1-1.59-3.43c1.44,3.13,4.5,8,11,8.8a44.33,44.33,0,0,0,15.71-.75,8,8,0,0,0,3.46-1.59,7.57,7.57,0,0,0,2.36-7,7.33,7.33,0,0,0-2.29-4.54,6.73,6.73,0,0,0-1.6-1c1.65,2,2.7,5.13,1.56,7.39a13.47,13.47,0,0,0-3-6.78l-.26-.26-.36,0c-4.25.3-7.37,1.61-8.81,3.68a5.38,5.38,0,0,0-.59,4.81,9.71,9.71,0,0,0,.8,1.91c-5.36.29-12.75-.3-11.9-4.76.44-2.26,3.08-3.42,8.05-5.09a20.83,20.83,0,0,0,2.7-1.1h0a9,9,0,0,0,.9-.52h.06a23.7,23.7,0,0,1,9-.68c2.54.46,5.73,2,6.49,6.81.46,2.9-.38,8.16-6.44,9.46A50.07,50.07,0,0,1,234.51,169.67Zm-13.84-15.95c-2.51.07-5.09.15-7.9-3.16a12.25,12.25,0,0,1-3.21-6.5,14.66,14.66,0,0,0,2.93,5.07,9.92,9.92,0,0,0,8.15,3.79c.48,0,1,0,1.45,0a87.53,87.53,0,0,0,15.5-1.44,6.39,6.39,0,0,0,2.77-1.26c1.54-1.28,2.07-3.42,1.47-5.89a8.82,8.82,0,0,0-6.12-6.48c2.26,2.13,4,5.29,3.07,8.33-.88-3-2.72-6-4.48-7.35l-.26-.2-.32,0c-3.05.39-8.44,1.48-10.29,4.47a4.38,4.38,0,0,0-.33,3.91,6.75,6.75,0,0,0,1.65,2.68,27.68,27.68,0,0,1-4.39-.09c-2-.29-5.05-3.47-2.59-8-1.42,2-2.52,4.5-.67,7.12a3.66,3.66,0,0,1-2-2.21c-1.56-4.56,1.33-7.72,6.55-9.43.49,0,1.08-.09,1.83-.17,3.24-.33,8.66-.88,11.67-.14a9.72,9.72,0,0,1,7.47,7.31,7,7,0,0,1-.61,5.42,6.31,6.31,0,0,1-4.24,2.7,89.79,89.79,0,0,1-15.67,1.46C221.61,153.69,221.13,153.7,220.67,153.72Zm-51.34,0c-.46,0-.94,0-1.41,0a89.79,89.79,0,0,1-15.67-1.46,6.31,6.31,0,0,1-4.24-2.7,7.08,7.08,0,0,1-.61-5.42,9.72,9.72,0,0,1,7.47-7.31c3-.74,8.43-.19,11.67.14.75.08,1.34.14,1.83.17,5.22,1.71,8.11,4.87,6.55,9.43a3.66,3.66,0,0,1-2,2.21c1.86-2.62.75-5.09-.67-7.12,2.46,4.51-.63,7.69-2.59,8a27.68,27.68,0,0,1-4.39.09A6.75,6.75,0,0,0,166.9,147a4.38,4.38,0,0,0-.33-3.91c-1.85-3-7.24-4.08-10.29-4.47l-.32,0-.26.2c-1.76,1.35-3.6,4.38-4.48,7.35-1-3,.81-6.2,3.07-8.33a8.82,8.82,0,0,0-6.12,6.48c-.6,2.47-.07,4.61,1.47,5.89a6.39,6.39,0,0,0,2.77,1.26,87.53,87.53,0,0,0,15.5,1.44c.48,0,1,0,1.45,0a9.92,9.92,0,0,0,8.15-3.79,14.66,14.66,0,0,0,2.93-5.07,12.25,12.25,0,0,1-3.21,6.5C174.42,153.87,171.84,153.79,169.33,153.72Zm-29.78,15.19c-6.06-1.3-6.9-6.56-6.44-9.46.76-4.8,3.95-6.35,6.49-6.81a23.77,23.77,0,0,1,9,.68h.05a9,9,0,0,0,.9.52h0a20.83,20.83,0,0,0,2.7,1.1c5,1.67,7.61,2.83,8.05,5.09.85,4.46-6.54,5-11.9,4.76a9.71,9.71,0,0,0,.8-1.91,5.38,5.38,0,0,0-.59-4.81c-1.43-2.07-4.56-3.38-8.81-3.68l-.36,0-.26.26a13.47,13.47,0,0,0-3,6.78c-1.14-2.26-.09-5.43,1.56-7.38a6.38,6.38,0,0,0-1.6,1,7.33,7.33,0,0,0-2.29,4.54,7.57,7.57,0,0,0,2.36,7,8,8,0,0,0,3.46,1.59,44.33,44.33,0,0,0,15.71.75c6.5-.84,9.56-5.67,11-8.8a13.85,13.85,0,0,1-1.59,3.43c-2.31,3.79-5.37,5.81-9.34,6.16A50.07,50.07,0,0,1,139.55,168.91Zm-7.94,13c-3-1.46-4.57-4.24-4-7.09.6-3.14,2.52-5.45,5-6.08l1.52.18c.09.08.16.16.25.23a11,11,0,0,0,4.36,2,28.27,28.27,0,0,0,3.89,1.22c3.43.84,3.37,3.26,2,4.82a4.45,4.45,0,0,1-3,1.1,4.19,4.19,0,0,0-.08-3.53c-1.16-2.33-4.29-3.73-6.61-4.22l-.36-.08-.29.22a9.63,9.63,0,0,0-3.05,4.67,2.94,2.94,0,0,1-.44-.82c-.59-1.7.22-3.51,1.37-4.86a6.92,6.92,0,0,0-3.83,5.25,5.4,5.4,0,0,0,2.05,5.25,7.53,7.53,0,0,0,1.53,1c2.89,1.41,9.71,1.57,12,1.11h0c4.05-1.2,5.56-3.55,6.12-5.46a5.31,5.31,0,0,1,0,.68c-.28,2.49-3.6,5.29-5.86,5.55C141.27,183.38,134.52,183.29,131.61,181.87Zm-31.1,24.75a33.45,33.45,0,0,1-11-3.45,49,49,0,0,1-9.65-6.39,59.73,59.73,0,0,1-8.06-8.31,31.53,31.53,0,0,1-5.69-10A27.79,27.79,0,0,0,69,183.4q1.68,2.31,3.55,4.46a75.44,75.44,0,0,0,8.11,8l2.21,1.78c.75.58,1.53,1.11,2.29,1.68l.58.42.59.38,1.2.77c.78.54,1.61,1,2.44,1.46A44.11,44.11,0,0,0,100.51,206.62ZM160,79.55a6.77,6.77,0,0,0-2.82-2.21s0,0-.07-.06l-.18,0a10.59,10.59,0,0,0-1.62-.53h-.06a16.38,16.38,0,0,0-1.75-.31l-.54-.06c-.48,0-1-.1-1.47-.13l-.42,0c.12-.08.23-.17.35-.24,3.47-2.16,7.26-2.61,9.41-1.33,2.06-2.24,9.16-10,15.88-17.36.7,1.26,1.39,2.48,2.05,3.65-7.51,6.75-14.27,12.41-16.92,14.59l.2.28c1,1.67.45,4-1.25,6.22A4.64,4.64,0,0,0,160,79.55Zm1.79-68.17c4.92-3.92,9.41-6.47,10-5.69s-2.86,4.59-7.78,8.51-9.41,6.47-10,5.69S156.86,15.3,161.77,11.38ZM236,19.89c-.62.78-5.11-1.77-10-5.69s-8.41-7.73-7.78-8.51,5.11,1.77,10,5.69S236.63,19.11,236,19.89Zm1.05,56.43-.54.06a16.38,16.38,0,0,0-1.75.31h-.06a10.59,10.59,0,0,0-1.62.53l-.17,0s0,0-.08.06A6.77,6.77,0,0,0,230,79.55a4.64,4.64,0,0,0-.79,2.42c-1.7-2.18-2.28-4.55-1.25-6.22l.2-.28c-5.15-4.25-25.9-21.61-37.33-34.77C177.73,25.6,181,26.52,181,26.52c3.11-1.15,18.24,15.24,27.14,25.05,7.77,8.56,18.43,20.19,21,23,2.15-1.28,5.94-.83,9.41,1.33.12.07.23.16.35.24l-.42,0C238,76.22,237.54,76.27,237.06,76.32Zm-105,90.07Zm35.51-34.87-2.32,2.91c-.86-.09-1.81-.17-2.79-.24l5.62-7a11.73,11.73,0,0,0-.56,3.86C167.53,131.18,167.57,131.35,167.58,131.52Zm1,3.23h0l0,0ZM157.52,22.29c-.06-1.42,1.31-1.75,3-1.12-.28-2.51,2-3,4.19-2.78a2.77,2.77,0,0,1,1-3.35h0c2-1.65,6.71-5.71,8-8.56l2.3,1.6a3,3,0,0,0-.3,1.94v0a9.27,9.27,0,0,0-1-.27,1.92,1.92,0,0,0-1.18.14,1.79,1.79,0,0,0-.71.74,1.53,1.53,0,0,1,.84-.22,1.12,1.12,0,0,1,.63.34l.07.07a1.63,1.63,0,0,0-.55.53,3.08,3.08,0,0,0-.36,1.45,1.63,1.63,0,0,1-.21.87c-.07.07-.19.08-.54.11h-.16a2.65,2.65,0,0,0-.26-.21,2.46,2.46,0,0,0-1.06-.38,1.82,1.82,0,0,0-1,.22,2.64,2.64,0,0,0-.66.57,2.08,2.08,0,0,1,.78,0,1,1,0,0,1,.55.27,1.4,1.4,0,0,1,.09.17,1.15,1.15,0,0,0-.17.14,3,3,0,0,0-.72,1.75c-.07.48-.11.67-.31.82a1.3,1.3,0,0,1-.59.27,4.67,4.67,0,0,0-1.14-.78,1.65,1.65,0,0,0-1.11-.11,1.76,1.76,0,0,0-.8.51,1.56,1.56,0,0,1,.81,0,.86.86,0,0,1,.45.43,2.18,2.18,0,0,1,.09.23l-.36.18-.09.06-.07.07a3.2,3.2,0,0,0-.78,1.45,1.62,1.62,0,0,1-.56,1c-.19.16-.38.16-.85.12-.66-.91-1.53-1.58-2.39-1.17-.67.32-.28,1.23-.17,1.49s.11.27.17.4a3.07,3.07,0,0,0-.65,1.27c-.1.34-.15.46-.23.5a.79.79,0,0,1-.43.06c-1.11-1.39-2.18-1.67-2.71-1.11-.25.27,0,.77.32,1.32a2.73,2.73,0,0,0-.8,1.12c0,.08-.08.18-.12.26-.88-1.49-1.87-1.92-2.47-1.46a.48.48,0,0,0-.16.35C155,22,156.39,21.85,157.52,22.29ZM214.31,10a3,3,0,0,0-.3-1.94l2.3-1.6c1.28,2.85,6,6.91,8,8.56h0a2.77,2.77,0,0,1,1,3.35c2.21-.18,4.47.27,4.19,2.78,1.68-.63,3-.3,3,1.12,1.13-.44,2.56-.33,2.42,1.29a.48.48,0,0,0-.16-.35c-.6-.46-1.59,0-2.47,1.46,0-.08-.09-.18-.12-.26a2.73,2.73,0,0,0-.8-1.12c.34-.55.57-1,.32-1.32-.53-.56-1.6-.28-2.71,1.11a.8.8,0,0,1-.43-.06c-.08,0-.13-.16-.23-.5a3.07,3.07,0,0,0-.65-1.27c.06-.13.12-.27.17-.4s.5-1.17-.17-1.49c-.86-.41-1.73.26-2.39,1.17-.47,0-.66,0-.85-.12a1.62,1.62,0,0,1-.56-1,3.2,3.2,0,0,0-.78-1.45l-.07-.07-.09-.06-.36-.18a2.18,2.18,0,0,1,.09-.23.86.86,0,0,1,.45-.43,1.56,1.56,0,0,1,.81,0,1.76,1.76,0,0,0-.8-.51,1.65,1.65,0,0,0-1.11.11,4.87,4.87,0,0,0-1.14.78,1.3,1.3,0,0,1-.59-.27c-.2-.15-.24-.34-.31-.82a3,3,0,0,0-.72-1.75,1.15,1.15,0,0,0-.17-.14,1.4,1.4,0,0,1,.09-.17,1,1,0,0,1,.55-.27,2.08,2.08,0,0,1,.78,0,2.64,2.64,0,0,0-.66-.57,1.82,1.82,0,0,0-1-.22,2.46,2.46,0,0,0-1.06.38,2.65,2.65,0,0,0-.26.21h-.16c-.35,0-.47,0-.54-.11a1.55,1.55,0,0,1-.2-.87,3.22,3.22,0,0,0-.37-1.45,1.63,1.63,0,0,0-.55-.53l.07-.07a1.12,1.12,0,0,1,.63-.34,1.53,1.53,0,0,1,.84.22,1.79,1.79,0,0,0-.71-.74,1.92,1.92,0,0,0-1.18-.14,9.27,9.27,0,0,0-1,.27Zm.36,19.37a53.64,53.64,0,0,0,8.17,5.1,3.48,3.48,0,0,0-.41.52c-1,1.84-3.81,7-7,12.66l-1.57-1.56c2.12-3.78,4.35-7.64,6.58-11.24A19.26,19.26,0,0,1,214.67,29.38Zm10.91-7a1.09,1.09,0,0,1,.63.07c.14.08.2.2.32.62a2.44,2.44,0,0,0,1.09,1.58,2.67,2.67,0,0,0,.36.14c-.36,1.33-3.69,8.4-6.32,5.36S223.82,23,225.58,22.38Zm-22.51,13.7L199.62,33c4.39-4.14,8-6.95,9.36-6.45C209,26.52,211.53,25.82,203.07,36.08Zm24.51-3.25a4,4,0,0,1-1.91-.28,16.79,16.79,0,0,0,2.65-3,15.06,15.06,0,0,0,1.46-3.59,3.46,3.46,0,0,0,.7.94l-.15.48A33.48,33.48,0,0,1,228.7,32,1.81,1.81,0,0,1,227.58,32.83ZM212.21,12.89l.44-.25a3.76,3.76,0,0,0,1.17.5,3.9,3.9,0,0,0,.92,2.42,2.47,2.47,0,0,0,.41.33.78.78,0,0,1-.05.14c-.39.91-4,5.5-6,2.75-1.23-1.72-.09-3.67,1.49-5C211.09,13.53,211.61,13.22,212.21,12.89Zm-31.33,5.89c-2,2.75-5.59-1.84-6-2.75a.78.78,0,0,1-.05-.14,2.47,2.47,0,0,0,.41-.33,3.9,3.9,0,0,0,.92-2.42,3.76,3.76,0,0,0,1.17-.5l.44.25c.6.33,1.12.64,1.6.92C181,15.11,182.11,17.07,180.88,18.78Zm-18.86,6a2.67,2.67,0,0,0,.36-.14,2.44,2.44,0,0,0,1.09-1.58c.12-.42.18-.54.32-.62a1.09,1.09,0,0,1,.63-.07c1.76.57,6.41,4.87,3.92,7.77S162.39,26.12,162,24.79Zm-2.35,2.54-.15-.48a3.46,3.46,0,0,0,.7-.94,15.06,15.06,0,0,0,1.46,3.59,16.79,16.79,0,0,0,2.65,3,4,4,0,0,1-1.91.28A1.81,1.81,0,0,1,161.3,32,33.48,33.48,0,0,1,159.67,27.33Zm61.76,107.39,0,0h0Zm1-3.2c0-.17.05-.34.05-.52a11.73,11.73,0,0,0-.56-3.86l5.62,7c-1,.07-1.93.15-2.79.24Zm35.51,34.87h0Zm6.95,9,6.82,8.86-6.82-8.37C264.88,175.76,264.89,175.59,264.88,175.43Zm-4.05-50.2q-5.56-7.19-10.95-14.51,5.94,6.89,11.7,13.91c3.85,4.67,7.64,9.39,11.43,14.12s7.52,9.49,11.22,14.29,7.36,9.62,10.94,14.5q-5.94-6.87-11.69-13.9c-3.86-4.68-7.65-9.4-11.43-14.12S264.53,130,260.83,125.23Zm-16.6,25.11a7.37,7.37,0,0,0,.52-1.1l.73.95C245.06,150.23,244.64,150.28,244.23,150.34Zm-22-30.39,10.9,14.19c-.74-.06-1.52-.08-2.31-.08l-11-13.46c-.82.19-1.64.34-2.44.46a27.13,27.13,0,0,0-8.1-3.93,39.25,39.25,0,0,1-4.21-6.26c-1.2-2.14-1.65-6.51-2-10A34.59,34.59,0,0,0,202,94c-.81-2.37-4.6-8.31-10.28-17.11-2.47-3.82-4.8-7.43-6.31-9.94-3.83-6.37-15.53-27.72-17.84-31.93a3.48,3.48,0,0,0-.41-.52,53.64,53.64,0,0,0,8.17-5.1,19.26,19.26,0,0,1-5.8,5.48c7.68,12.43,15.4,27.83,18.66,32.9s13.3,20.16,14.63,22.41c2,3.42,2.5,9.38,2.5,9.38s1.06-4.75.07-8.22c1.83,2.87,1.36,11.24,2.92,15.83s4.74,9.36,7.82,11.5,22.41-7.28,22.41-7.28S230,117.34,222.24,120Zm-1.05-38.16A4,4,0,1,1,221,87,3.74,3.74,0,0,1,221.19,81.79Zm24.9-6.17c-.83-.4-1.6-.72-2.24-1-3-1.25-12.13-2.87-15.3-6.41-6.61-7.39-25.66-28.44-25.66-28.44s17.63,16.36,26.18,26.58c3.1,3.72,12.13,5.46,17.24,8.15.42.22.84.5,1.26.77l-.1,0A14,14,0,0,1,246.09,75.62ZM234.85,23.89a.13.13,0,0,1,0,.06h0A.2.2,0,0,0,234.85,23.89ZM155.16,24a.13.13,0,0,1,0-.06.2.2,0,0,0,0,.07ZM142.43,75.28c.42-.27.84-.55,1.26-.77,5.11-2.69,14.14-4.43,17.24-8.15,3.47-4.14,8.41-9.28,13.08-13.94.21.38.42.77.64,1.15-5,5.56-10.3,11.41-13.2,14.65-3.17,3.54-12.25,5.16-15.3,6.41-.64.27-1.41.59-2.24,1a14,14,0,0,1-1.38-.31ZM169,87a3.46,3.46,0,1,1-.18-5.25A3.74,3.74,0,0,1,169,87Zm4.88,31.62c3.08-2.14,6.26-6.91,7.82-11.5s1.09-13,2.92-15.83c-1,3.47.07,8.22.07,8.22s.48-6,2.5-9.38c.54-.92,2.53-4,4.92-7.6l1.26,2c-2.9,4.6-4.82,7.84-5.36,9.43a34.59,34.59,0,0,0-1.11,6.86c-.36,3.52-.81,7.89-2,10a39.25,39.25,0,0,1-4.21,6.26,27.13,27.13,0,0,0-8.1,3.93c-.8-.12-1.62-.27-2.44-.46l-11,13.46c-.79,0-1.57,0-2.31.08L167.76,120c-7.75-2.61-16.3-8.57-16.3-8.57S170.8,120.79,173.87,118.66Zm-28.62,30.58a7.37,7.37,0,0,0,.52,1.1c-.41-.06-.83-.11-1.25-.15Zm-16.08-24q-5.55,7.19-11.22,14.29c-3.78,4.72-7.57,9.44-11.43,14.12s-7.73,9.32-11.69,13.9q5.37-7.32,10.94-14.5c3.7-4.8,7.46-9.55,11.22-14.29s7.58-9.45,11.43-14.12,7.74-9.32,11.7-13.91Q134.74,118.06,129.17,125.23Zm-4,50.2c0,.16,0,.33,0,.49l-6.82,8.37Zm15,2.41a3.18,3.18,0,0,1-1.94,1.74c-1.85.62-4.32,0-6.07-.84,0,0,0-.07,0-.1,2.28.49,5.85.81,7.1-1.32-2.13,1.16-4.56.85-6.83-.15a9.57,9.57,0,0,1,2.6-5c2,.51,4.34,1.69,5.14,3.29A2.56,2.56,0,0,1,140.15,177.84ZM140.08,156c3.51.3,6.13,1.38,7.23,3a3.84,3.84,0,0,1,.37,3.46c-1.34,4.47-4.19,4.31-9.87,2.74,0,0,0-.09,0-.13,6.68,1.15,7.77-.7,8.47-3.31-2.26,3.58-7.52,1.76-8.62,1.33A13,13,0,0,1,140.08,156ZM154,149.7c5.41.53,9.42-.8,10.45-3.63l0-.13c-1.7,2.06-6.31,1.82-11.8.81a14.86,14.86,0,0,1,3.73-6.48c4.47.61,7.74,2,8.8,3.68a2.83,2.83,0,0,1,.18,2.55C164.18,150,160.79,150.93,154,149.7Zm26.35-13.89c-.86.06-1.65.08-2.41.08l-4.65-.57a5.59,5.59,0,0,1-2.09-1.12,4.24,4.24,0,0,1-1.29-3.24c-.14-7.84,8.35-10.56,12-11.72l.36-.12c.28-.08.58-.15.89-.21s.62-.12.94-.18c.63-.1,1.27-.2,1.92-.28-.59-.28-1.18-.55-1.78-.81l-.27-.11,1-1.26a22.61,22.61,0,0,1,4.33,5.68c.83,1.9,1.25,6.75-.86,9.66A10.33,10.33,0,0,1,180.35,135.81ZM200.69,122a22.61,22.61,0,0,1,4.33-5.68l1,1.26-.26.11c-.61.26-1.2.53-1.79.81.65.08,1.29.18,1.92.28.32.06.63.11.94.18s.61.13.89.21h0l.36.12c3.62,1.16,12.11,3.88,12,11.72a4.24,4.24,0,0,1-1.29,3.24,5.59,5.59,0,0,1-2.09,1.12l-4.65.57c-.76,0-1.55,0-2.41-.08a10.29,10.29,0,0,1-8.09-4.2C199.44,128.7,199.86,123.85,200.69,122ZM224.6,146.5a2.8,2.8,0,0,1,.19-2.55c1.05-1.7,4.32-3.07,8.79-3.68a14.86,14.86,0,0,1,3.73,6.48c-5.49,1-10.1,1.25-11.8-.81l0,.13c1,2.83,5,4.16,10.45,3.63C229.21,150.93,225.82,150,224.6,146.5ZM242.69,159c1.1-1.58,3.72-2.66,7.23-3a13,13,0,0,1,2.44,7.05c-1.1.43-6.36,2.25-8.62-1.33.7,2.61,1.79,4.46,8.47,3.31,0,0,0,.09,0,.13-5.68,1.57-8.53,1.73-9.87-2.74A3.84,3.84,0,0,1,242.69,159Zm7.16,18.85a2.56,2.56,0,0,1,0-2.36c.8-1.6,3.09-2.78,5.14-3.29a9.5,9.5,0,0,1,2.6,5c-2.27,1-4.7,1.31-6.83.15,1.25,2.13,4.82,1.81,7.1,1.32,0,0,0,.07,0,.1-1.75.82-4.22,1.46-6.07.84A3.18,3.18,0,0,1,249.85,177.84Zm68.34,10.63a59.73,59.73,0,0,1-8.06,8.31,49,49,0,0,1-9.65,6.39,33.45,33.45,0,0,1-11,3.45A43.94,43.94,0,0,0,300,202.33c.83-.47,1.66-.92,2.44-1.46l1.2-.77.59-.38.58-.42c.76-.57,1.54-1.1,2.29-1.68l2.21-1.78a75.44,75.44,0,0,0,8.11-8q1.88-2.15,3.55-4.46a27.19,27.19,0,0,0,2.88-4.92A31.53,31.53,0,0,1,318.19,188.47ZM257.28,98.16a9.57,9.57,0,0,0,1.43,2.43l49,61.52s3.91,4.91,5.37,2.13c-1.14,5.11-5.25,13.63-17.22,21.47-6.5,4.25-12,6.25-16.43,7h0c-.72.11-2.75.65,3.95,9.34-5.28-6-6.57-7.27-6.84-9a20.48,20.48,0,0,1-2.2,0l0,.44a2,2,0,0,0,.44,1.08l5.5,6.9s1.26,2.33,5.55,1.54c6.2-1.14,17-5.23,27.42-17,1.54-2.34.08-3.6-1.31-5.35-2.71-3.4-3-3.81-3-3.81,3.73-4.06,4.56-7.24,4.56-7.24l3.58,4.48s3.07,3.78,4.88,0-.14-6.17-.14-6.17-4.06-6.37-6.3-4.62A15.52,15.52,0,0,0,316,159l.14.07a1.28,1.28,0,0,1,.45.35l7.46,9.36a3.18,3.18,0,0,1,.19.45c.12,4.19-1.84,12.89-16.07,24.65-15.75,13-25.69,11.64-29.4,10.34l-7.14-8.95a1.36,1.36,0,0,1-.25-.53,10.83,10.83,0,0,0-2.13-4.52l-6.71-8.41a8.89,8.89,0,0,0,1.42-2l5.64,7.08c1.87,2.3,8.43,8.86,25.61-1.79,6.24-4.44,8-6.35,9.14-7.78a4.38,4.38,0,0,0,.16-5.3c-7.78-11.07-54.33-67.71-54.33-67.71a30.84,30.84,0,0,1-7.43,4,52.65,52.65,0,0,0,9.53-10.07A30.69,30.69,0,0,0,257.28,98.16Zm-110,10.22a30.84,30.84,0,0,1-7.43-4S93.32,161,85.54,172a4.38,4.38,0,0,0,.16,5.3c1.18,1.43,2.9,3.34,9.14,7.78,17.18,10.65,23.74,4.09,25.61,1.79l5.64-7.08a8.89,8.89,0,0,0,1.42,2l-6.71,8.41a10.83,10.83,0,0,0-2.13,4.52,1.36,1.36,0,0,1-.25.53l-7.14,8.95c-3.71,1.3-13.65,2.67-29.4-10.34C67.65,182.1,65.69,173.4,65.81,169.21a3.18,3.18,0,0,1,.19-.45l7.46-9.36a1.28,1.28,0,0,1,.45-.35l.14-.07a15.52,15.52,0,0,0,.36,4.41c-2.24-1.75-6.3,4.62-6.3,4.62s-2,2.44-.14,6.17,4.88,0,4.88,0l3.58-4.48s.83,3.18,4.56,7.24c0,0-.31.41-3,3.81-1.39,1.75-2.85,3-1.31,5.35,10.44,11.75,21.22,15.84,27.42,17,4.29.79,5.55-1.54,5.55-1.54l5.5-6.9a2,2,0,0,0,.44-1.08l0-.44a20.48,20.48,0,0,1-2.2,0c-.27,1.74-1.55,3-6.84,9,6.7-8.69,4.67-9.23,4-9.34h0c-4.42-.76-9.93-2.76-16.43-7-12-7.84-16.08-16.36-17.22-21.47,1.46,2.78,5.37-2.13,5.37-2.13l49-61.52a9.57,9.57,0,0,0,1.43-2.43,30.69,30.69,0,0,0,5.05.15A52.65,52.65,0,0,0,147.3,108.38ZM247.94,79.17c-2.16.51-6.5.27-10.08-.54h.1c1-.08,2-.12,3-.17a42.25,42.25,0,0,0,5.31-.43,17.32,17.32,0,0,0,2.28-.55l.17,0a3.27,3.27,0,0,1,.91,1.07A3.71,3.71,0,0,1,247.94,79.17Zm-105.88,0a3.71,3.71,0,0,1-1.7-.67,3.27,3.27,0,0,1,.91-1.07l.17,0a17.32,17.32,0,0,0,2.28.55,42.25,42.25,0,0,0,5.31.43c1,0,2.05.09,3,.17h.1C148.56,79.44,144.22,79.68,142.06,79.17Z"/><path class="cls-3" d="M32.51,133.41c.16.57.31,1.13.47,1.71l32.38-1.53Z"/><path class="cls-3" d="M31,127.62l.33,1.31c11.14-.2,25.77-.41,25.77-.41Z"/><path class="cls-1" d="M242.7,108.38a30.84,30.84,0,0,0,7.43-4S296.68,161,304.46,172a4.38,4.38,0,0,1-.16,5.3c-1.18,1.43-2.9,3.34-9.14,7.78-17.18,10.65-23.74,4.09-25.61,1.79l-5.64-7.08a8.89,8.89,0,0,1-1.42,2l6.71,8.41a10.83,10.83,0,0,1,2.13,4.52,1.36,1.36,0,0,0,.25.53l7.14,8.95c3.71,1.3,13.65,2.67,29.4-10.34,14.23-11.76,16.19-20.46,16.07-24.65a3.18,3.18,0,0,0-.19-.45l-7.46-9.36a1.28,1.28,0,0,0-.45-.35L316,159a15.52,15.52,0,0,1-.36,4.41c2.24-1.75,6.3,4.62,6.3,4.62s1.95,2.44.14,6.17-4.88,0-4.88,0l-3.58-4.48s-.83,3.18-4.56,7.24c0,0,.31.41,3,3.81,1.39,1.75,2.85,3,1.31,5.35-10.44,11.75-21.22,15.84-27.42,17-4.29.79-5.55-1.54-5.55-1.54l-5.5-6.9a2,2,0,0,1-.44-1.08l0-.44a20.48,20.48,0,0,0,2.2,0c.27,1.74,1.56,3,6.84,9-6.7-8.69-4.67-9.23-3.95-9.34h0c4.42-.76,9.93-2.76,16.43-7,12-7.84,16.08-16.36,17.22-21.47-1.46,2.78-5.37-2.13-5.37-2.13l-49-61.52a9.57,9.57,0,0,1-1.43-2.43,30.69,30.69,0,0,1-5,.15A52.65,52.65,0,0,1,242.7,108.38Z"/><path class="cls-1" d="M216.13,118.66c-3.08-2.14-6.26-6.91-7.82-11.5s-1.09-13-2.92-15.83c1,3.47-.07,8.22-.07,8.22s-.48-6-2.5-9.38c-1.33-2.25-11.35-17.3-14.63-22.41s-11-20.47-18.66-32.9a19.26,19.26,0,0,0,5.8-5.48,53.64,53.64,0,0,1-8.17,5.1,3.48,3.48,0,0,1,.41.52c2.31,4.21,14,25.56,17.84,31.93,1.51,2.51,3.84,6.12,6.31,9.94C197.4,85.67,201.19,91.61,202,94a34.59,34.59,0,0,1,1.11,6.86c.36,3.52.81,7.89,2,10a39.25,39.25,0,0,0,4.21,6.26,27.13,27.13,0,0,1,8.1,3.93c.8-.12,1.62-.27,2.44-.46l11,13.46c.79,0,1.57,0,2.31.08L222.24,120c7.75-2.61,16.3-8.57,16.3-8.57S219.2,120.79,216.13,118.66Z"/><path class="cls-1" d="M244.23,150.34c.41-.06.83-.11,1.25-.15l-.73-.95A7.37,7.37,0,0,1,244.23,150.34Z"/><path class="cls-1" d="M257.93,166.39Z"/><path class="cls-1" d="M221.91,127.14a11.73,11.73,0,0,1,.56,3.86c0,.18,0,.35-.05.52l2.32,2.91c.86-.09,1.81-.17,2.79-.24Z"/><path class="cls-1" d="M271.7,184.29l-6.82-8.86c0,.16,0,.33,0,.49Z"/><path class="cls-1" d="M238.6,75.92c-3.47-2.16-7.26-2.61-9.41-1.33-2.6-2.83-13.26-14.46-21-23-8.9-9.81-24-26.2-27.14-25,0,0-3.29-.92,9.83,14.18C202.28,53.86,223,71.22,228.18,75.47l-.2.28c-1,1.67-.45,4,1.25,6.22a4.64,4.64,0,0,1,.79-2.42,6.77,6.77,0,0,1,2.82-2.21s0,0,.08-.06l.17,0a10.59,10.59,0,0,1,1.62-.53h.06a16.38,16.38,0,0,1,1.75-.31l.54-.06c.48,0,1-.1,1.47-.13l.42,0C238.83,76.08,238.72,76,238.6,75.92Z"/><path class="cls-1" d="M226.17,88A4,4,0,1,0,221,87,3.75,3.75,0,0,0,226.17,88Z"/><path class="cls-1" d="M283.48,153.64q5.75,7,11.69,13.9-5.37-7.32-10.94-14.5c-3.7-4.8-7.46-9.55-11.22-14.29s-7.58-9.45-11.43-14.12-7.74-9.32-11.7-13.91q5.38,7.34,10.95,14.51t11.22,14.29C275.83,144.24,279.62,149,283.48,153.64Z"/><path class="cls-1" d="M246.31,74.51c-5.11-2.69-14.14-4.43-17.24-8.15-8.55-10.22-26.18-26.58-26.18-26.58s19.05,21,25.66,28.44c3.17,3.54,12.25,5.16,15.3,6.41.64.27,1.41.59,2.24,1a14,14,0,0,0,1.38-.31l.1,0C247.15,75,246.73,74.73,246.31,74.51Z"/><path class="cls-1" d="M177.35,12.64a3.76,3.76,0,0,1-1.17.5,3.9,3.9,0,0,1-.92,2.42,2.47,2.47,0,0,1-.41.33.78.78,0,0,0,.05.14c.39.91,4,5.5,6,2.75,1.23-1.71.09-3.67-1.49-5-.48-.28-1-.59-1.6-.92Z"/><path class="cls-1" d="M162.42,32.83a4,4,0,0,0,1.91-.28,16.79,16.79,0,0,1-2.65-3,15.06,15.06,0,0,1-1.46-3.59,3.46,3.46,0,0,1-.7.94l.15.48A33.48,33.48,0,0,0,161.3,32,1.81,1.81,0,0,0,162.42,32.83Z"/><path class="cls-1" d="M317.45,187.86a75.44,75.44,0,0,1-8.11,8l-2.21,1.78c-.75.58-1.53,1.11-2.29,1.68l-.58.42-.59.38-1.2.77c-.78.54-1.61,1-2.44,1.46a43.94,43.94,0,0,1-10.54,4.29,33.45,33.45,0,0,0,11-3.45,49,49,0,0,0,9.65-6.39,59.73,59.73,0,0,0,8.06-8.31,31.53,31.53,0,0,0,5.69-10A27.19,27.19,0,0,1,321,183.4Q319.32,185.71,317.45,187.86Z"/><path class="cls-1" d="M168.34,30.15c2.49-2.9-2.16-7.2-3.92-7.77a1.09,1.09,0,0,0-.63.07c-.14.08-.2.2-.32.62a2.44,2.44,0,0,1-1.09,1.58,2.67,2.67,0,0,1-.36.14C162.39,26.12,165.71,33.19,168.34,30.15Z"/><path class="cls-4" d="M157.73,24.69c0-.08.09-.18.12-.26a2.73,2.73,0,0,1,.8-1.12c-.34-.55-.57-1-.32-1.32.53-.56,1.6-.28,2.71,1.11a.79.79,0,0,0,.43-.06c.08,0,.13-.16.23-.5a3.07,3.07,0,0,1,.65-1.27c-.06-.13-.12-.27-.17-.4s-.5-1.17.17-1.49c.86-.41,1.73.26,2.39,1.17.47,0,.66,0,.85-.12a1.62,1.62,0,0,0,.56-1,3.2,3.2,0,0,1,.78-1.45l.07-.07.09-.06.36-.18a2.18,2.18,0,0,0-.09-.23.86.86,0,0,0-.45-.43,1.56,1.56,0,0,0-.81,0,1.76,1.76,0,0,1,.8-.51,1.65,1.65,0,0,1,1.11.11,4.67,4.67,0,0,1,1.14.78,1.3,1.3,0,0,0,.59-.27c.2-.15.24-.34.31-.82a3,3,0,0,1,.72-1.75,1.15,1.15,0,0,1,.17-.14,1.4,1.4,0,0,0-.09-.17,1,1,0,0,0-.55-.27,2.08,2.08,0,0,0-.78,0,2.64,2.64,0,0,1,.66-.57,1.82,1.82,0,0,1,1-.22,2.46,2.46,0,0,1,1.06.38,2.65,2.65,0,0,1,.26.21h.16c.35,0,.47,0,.54-.11a1.63,1.63,0,0,0,.21-.87,3.08,3.08,0,0,1,.36-1.45,1.63,1.63,0,0,1,.55-.53l-.07-.07a1.12,1.12,0,0,0-.63-.34,1.53,1.53,0,0,0-.84.22,1.79,1.79,0,0,1,.71-.74,1.92,1.92,0,0,1,1.18-.14,9.27,9.27,0,0,1,1,.27v0a3,3,0,0,1,.3-1.94l-2.3-1.6c-1.28,2.85-6,6.91-8,8.56h0a2.77,2.77,0,0,0-1,3.35c-2.21-.18-4.47.27-4.19,2.78-1.68-.63-3-.3-3,1.12-1.13-.44-2.56-.33-2.42,1.29a.48.48,0,0,1,.16-.35C155.86,22.77,156.85,23.2,157.73,24.69Z"/><path class="cls-1" d="M155.16,24h0a.2.2,0,0,1,0-.07A.13.13,0,0,0,155.16,24Z"/><path class="cls-5" d="M154,19.89c.62.78,5.11-1.77,10-5.69s8.41-7.73,7.78-8.51-5.11,1.77-10,5.69S153.37,19.11,154,19.89Z"/><path class="cls-3" d="M209.71,135c4,.29,6.53-.11,8-1.26a5,5,0,0,0,1.65-3.14,5.75,5.75,0,0,0-1.82-5c.51,2.66,0,5.47-2.9,5.64a16.12,16.12,0,0,0-2.22-7.42l-.21-.39-.44,0c-.21,0-5.05-.23-7.33,2.18a4.21,4.21,0,0,0-1.15,2.93c-1.26-1.2-1.92-3.46-2.07-5.82-.71,1.27-1,5.73,1,8.43A9.53,9.53,0,0,0,209.71,135Zm1.5-10a14.72,14.72,0,0,1,1.75,5.65,17,17,0,0,1-1.86.37,9.7,9.7,0,0,1-2,.08,4.64,4.64,0,0,1-1.91-.51,3,3,0,0,1-1.37-1.48,3.35,3.35,0,0,0,1.08,1.89,5.48,5.48,0,0,0,2,1.08,10.5,10.5,0,0,0,2.22.43,16.7,16.7,0,0,0,1.87.07,1.77,1.77,0,0,1,0,.23c-2.3.25-5.15.45-6.75-.83a4,4,0,0,1-1.38-2.89,2.87,2.87,0,0,1,.72-2.39C206.89,125.29,209.77,125,211.21,125Z"/><path class="cls-3" d="M210.63,121.1h0Z"/><path class="cls-1" d="M262.4,174.78c-.6-3.14-2.52-5.45-5-6.08l-1.52.18c-.09.08-.16.16-.25.23a11,11,0,0,1-4.36,2,28.27,28.27,0,0,1-3.89,1.22c-3.43.84-3.37,3.26-2,4.82a4.46,4.46,0,0,0,3,1.1,4.15,4.15,0,0,1,.07-3.53c1.16-2.33,4.29-3.73,6.61-4.22l.36-.08.29.22a9.63,9.63,0,0,1,3.05,4.67,2.94,2.94,0,0,0,.44-.82c.59-1.7-.22-3.51-1.37-4.86a6.92,6.92,0,0,1,3.83,5.25,5.4,5.4,0,0,1-2.05,5.25,7.27,7.27,0,0,1-1.53,1c-2.89,1.41-9.71,1.57-12,1.11h0c-4.05-1.2-5.56-3.55-6.12-5.46a5.31,5.31,0,0,0,0,.68c.29,2.49,3.6,5.29,5.86,5.55,3,.35,9.71.26,12.62-1.16S263,177.63,262.4,174.78Z"/><path class="cls-1" d="M251.79,179.58c1.85.62,4.32,0,6.07-.84,0,0,0-.07,0-.1-2.28.49-5.85.81-7.1-1.32,2.13,1.16,4.56.85,6.83-.15a9.5,9.5,0,0,0-2.6-5c-2,.51-4.34,1.69-5.14,3.29a2.56,2.56,0,0,0,0,2.36A3.18,3.18,0,0,0,251.79,179.58Z"/><path class="cls-1" d="M250.45,168.91c6.06-1.3,6.9-6.56,6.44-9.46-.76-4.8-3.95-6.35-6.49-6.81a23.7,23.7,0,0,0-9,.68h-.06a9,9,0,0,1-.9.52h0a20.83,20.83,0,0,1-2.7,1.1c-5,1.67-7.61,2.83-8.05,5.09-.85,4.46,6.54,5,11.9,4.76a9.71,9.71,0,0,1-.8-1.91,5.38,5.38,0,0,1,.59-4.81c1.44-2.07,4.56-3.38,8.81-3.68l.36,0,.26.26a13.47,13.47,0,0,1,3,6.78c1.14-2.26.09-5.43-1.56-7.39a6.73,6.73,0,0,1,1.6,1,7.33,7.33,0,0,1,2.29,4.54,7.57,7.57,0,0,1-2.36,7,8,8,0,0,1-3.46,1.59,44.33,44.33,0,0,1-15.71.75c-6.5-.84-9.56-5.67-11-8.8a13.85,13.85,0,0,0,1.59,3.43c2.31,3.79,5.37,5.81,9.34,6.16A50.07,50.07,0,0,0,250.45,168.91Z"/><path class="cls-1" d="M209.65,135.81c.86.06,1.65.08,2.41.08l4.65-.57a5.59,5.59,0,0,0,2.09-1.12,4.24,4.24,0,0,0,1.29-3.24c.14-7.84-8.35-10.56-12-11.72l-.36-.12h0c-.28-.08-.58-.15-.89-.21s-.62-.12-.94-.18c-.63-.1-1.27-.2-1.92-.28.59-.28,1.18-.55,1.79-.81l.26-.11-1-1.26a22.61,22.61,0,0,0-4.33,5.68c-.83,1.9-1.25,6.75.87,9.66A10.29,10.29,0,0,0,209.65,135.81Zm1-14.71h0Zm-9.44,1.61c.15,2.36.81,4.62,2.07,5.82a4.21,4.21,0,0,1,1.15-2.93c2.28-2.41,7.12-2.2,7.33-2.18l.44,0,.21.39a16.12,16.12,0,0,1,2.22,7.42c2.9-.17,3.41-3,2.9-5.64a5.75,5.75,0,0,1,1.82,5,5,5,0,0,1-1.65,3.14c-1.44,1.15-4,1.55-8,1.26a9.53,9.53,0,0,1-7.51-3.88C200.23,128.44,200.48,124,201.19,122.71Z"/><path class="cls-1" d="M237.75,152.24a6.31,6.31,0,0,0,4.24-2.7,7,7,0,0,0,.61-5.42,9.72,9.72,0,0,0-7.47-7.31c-3-.74-8.43-.19-11.67.14-.75.08-1.34.14-1.83.17-5.22,1.71-8.11,4.87-6.55,9.43a3.66,3.66,0,0,0,2,2.21c-1.85-2.62-.75-5.09.67-7.12-2.46,4.51.63,7.69,2.59,8a27.68,27.68,0,0,0,4.39.09A6.75,6.75,0,0,1,223.1,147a4.38,4.38,0,0,1,.33-3.91c1.85-3,7.24-4.08,10.29-4.47l.32,0,.26.2c1.76,1.35,3.6,4.38,4.48,7.35,1-3-.81-6.2-3.07-8.33a8.82,8.82,0,0,1,6.12,6.48c.6,2.47.07,4.61-1.47,5.89a6.39,6.39,0,0,1-2.77,1.26,87.53,87.53,0,0,1-15.5,1.44c-.48,0-1,0-1.45,0a9.92,9.92,0,0,1-8.15-3.79,14.66,14.66,0,0,1-2.93-5.07,12.25,12.25,0,0,0,3.21,6.5c2.81,3.31,5.39,3.23,7.9,3.16.46,0,.94,0,1.41,0A89.79,89.79,0,0,0,237.75,152.24Z"/><path class="cls-1" d="M236,149.7c-5.41.53-9.42-.8-10.45-3.63l0-.13c1.7,2.06,6.31,1.82,11.8.81a14.86,14.86,0,0,0-3.73-6.48c-4.47.61-7.74,2-8.79,3.68a2.8,2.8,0,0,0-.19,2.55C225.82,150,229.21,150.93,236,149.7Z"/><path class="cls-1" d="M204.85,129.08a4,4,0,0,0,1.38,2.89c1.6,1.28,4.45,1.08,6.75.83a1.77,1.77,0,0,0,0-.23,16.7,16.7,0,0,1-1.87-.07,10.5,10.5,0,0,1-2.22-.43,5.48,5.48,0,0,1-2-1.08,3.35,3.35,0,0,1-1.08-1.89,3,3,0,0,0,1.37,1.48,4.64,4.64,0,0,0,1.91.51,9.7,9.7,0,0,0,2-.08,17,17,0,0,0,1.86-.37,14.72,14.72,0,0,0-1.75-5.65c-1.44,0-4.32.3-5.64,1.7A2.87,2.87,0,0,0,204.85,129.08Z"/><path class="cls-1" d="M252.19,165.19s0-.09,0-.13c-6.68,1.15-7.77-.7-8.47-3.31,2.26,3.58,7.52,1.76,8.62,1.33a13,13,0,0,0-2.44-7.05c-3.51.3-6.13,1.38-7.23,3a3.84,3.84,0,0,0-.37,3.46C243.66,166.92,246.51,166.76,252.19,165.19Z"/><path class="cls-1" d="M314.51,106.83a27.6,27.6,0,0,1,1.58,5,20.52,20.52,0,0,1,.29,7.19,19.87,19.87,0,0,0-1.43-6.85,27.57,27.57,0,0,0-3-5.54h0l-.29-.45c-3.24-5.06-12.12-14.28-17.05-18.67-4.38-3.9-7.11-5.53-14.61-7.54-1.95-.52-4.12-1.13-6.42-1.77-6.27-1.74-13.38-3.72-15.91-4-1.5-.14-2.9.55-4.67,1.42l-1.81.86A2.92,2.92,0,0,1,252,79a2.36,2.36,0,0,1-.9,1.37,6.72,6.72,0,0,1-2.61,1.1c-3.72.87-11.16-.07-15-1.81A4.25,4.25,0,0,0,232,80.94c-.53.75-.51,2,.07,3.54,1.47,3.93,6.27,8.88,12.28,10.31,8.59,2,14,.8,14.05.79l.64-.15.47.45a21.74,21.74,0,0,0,7.22,4.21L260.3,95l-1-.93-1.26.33c-.21,0-5.36,1.15-13.49-.79-5.4-1.29-10.06-5.88-11.45-9.57-.49-1.32-.42-2.13-.2-2.43l.08-.09c3,5.7,11,7.25,15.54,8.24,9.32,2,20.08-3.41,20.08-3.41a10,10,0,0,1-3.27,4.78c4.4,5.23,10.44,6.63,14.52,6.92,2.62.19,12-1.58,12-1.58s-5.58,2.73-7.39,7c-1.39,3.25.65,7.71,1.75,10.52,2.1,5.33,5.4,8.78,13.08,12.22,3.12,15.17,7.9,18.43,11.73,18.69s4.94-2.55,8-9c1.47,3.43,2.42,8.24,7.62,9.17,1.67.3,15.09.74,27.16,1.06q1.72-5.6,3.22-11l-32.37-1.53,32.84-.18c.41-1.51.82-3,1.21-4.48-11.14-.2-25.77-.41-25.77-.41l26.1-.9c1.93-7.42,3.54-14.43,4.88-20.93C351,106.85,322.84,107.15,314.51,106.83Z"/><path class="cls-1" d="M248.73,77.43l-.17,0a17.32,17.32,0,0,1-2.28.55,42.25,42.25,0,0,1-5.31.43c-1,0-2.05.09-3,.17h-.1c3.58.81,7.92,1.05,10.08.54a3.71,3.71,0,0,0,1.7-.67A3.27,3.27,0,0,0,248.73,77.43Z"/><path class="cls-1" d="M317.66,155.52c5.69-.09,19.72,0,32.95.47l.6-1.81-1.75-.06A160.26,160.26,0,0,0,317.66,155.52Z"/><path class="cls-3" d="M357,135.12c.16-.58.31-1.14.47-1.71l-32.84.18Z"/><path class="cls-3" d="M358.7,128.93l.33-1.31-26.1.9S347.56,128.73,358.7,128.93Z"/><path class="cls-3" d="M348.2,174.65c.72-1.87,1.44-3.75,2.13-5.63A415.94,415.94,0,0,0,373,76.47H364.8a412.1,412.1,0,0,1-22.18,90c-1,2.66-2,5.38-3.11,8.15Z"/><path class="cls-3" d="M41.8,174.65h8.69c-1.09-2.77-2.12-5.49-3.11-8.15a412.1,412.1,0,0,1-22.18-90H17A415.94,415.94,0,0,0,39.67,169C40.36,170.9,41.08,172.78,41.8,174.65Z"/><path class="cls-1" d="M194.52,333.07c1.38-.05-.17,4.77.06,6.69a63.43,63.43,0,0,0,2,7.21c-.74-4.83-.67-7.45,1.07-11.51s-1-5.79,0-6.45c.62-.37,2.93,2.17,4.08,5.31,1.53,4.76.55,10.94-5.12,19.59-3.29-5-5.86-9.07-6-14.58C191.07,335.74,193.15,333.13,194.52,333.07Z"/><path class="cls-1" d="M189.42,324.51c.93.39-1.87,3.14-2.41,4.5a48.79,48.79,0,0,0-1.32,5.45c1.29-3.46,2.29-5.2,4.92-7.38s1.44-4.2,2.39-4.31c.11,0,.22.08.32.25,0,0,3.2,5.25-4,11.4a33.56,33.56,0,0,1-5.91,4.35c-.35-4.34-.46-7.9,1.65-11.71C186.6,325.11,188.56,324.15,189.42,324.51Z"/><path class="cls-1" d="M199.43,327.31c-.51-.54-1-1.05-1.6-1.55a10.28,10.28,0,0,1-2.75-8c.09-.45.23-.73.42-.74,1,0,0,2.14,2.84,4s4,3.43,5.7,6.71a47.55,47.55,0,0,0-1.91-5.25c-.69-1.27-3.76-3.66-2.89-4.16s2.87.24,4.65,2c2.51,3.52,2.79,7.06,2.93,11.41A29.81,29.81,0,0,1,199.43,327.31Z"/><path class="cls-1" d="M197.48,180.86c-1.38.06.18-4.77-.06-6.68a63.13,63.13,0,0,0-2-7.22c.74,4.83.67,7.45-1.07,11.51s1,5.8,0,6.45c-.62.37-2.93-2.17-4.08-5.3-1.53-4.77-.55-11,5.12-19.6,3.29,5,5.86,9.07,6,14.58C200.93,178.19,198.85,180.8,197.48,180.86Z"/><path class="cls-1" d="M202.58,189.42c-.93-.39,1.87-3.14,2.41-4.5a48.79,48.79,0,0,0,1.32-5.45c-1.29,3.46-2.29,5.2-4.92,7.38s-1.44,4.21-2.39,4.31c-.11,0-.22-.08-.32-.24,0,0-3.2-5.26,4-11.41a33.56,33.56,0,0,1,5.91-4.35c.35,4.34.46,7.9-1.65,11.71C205.4,188.82,203.44,189.78,202.58,189.42Z"/><path class="cls-1" d="M192.57,186.62c.51.54,1,1,1.6,1.55a10.29,10.29,0,0,1,2.75,8c-.09.46-.23.73-.42.74-1,0,0-2.14-2.84-4s-4-3.43-5.7-6.71a47.55,47.55,0,0,0,1.91,5.25c.69,1.28,3.76,3.66,2.89,4.16s-2.87-.24-4.65-2c-2.51-3.52-2.79-7.06-2.93-11.41A29.81,29.81,0,0,1,192.57,186.62Z"/><path class="cls-1" d="M184,277.09a.81.81,0,0,1-.23.59.77.77,0,0,1-.58.23h-2.87a.79.79,0,0,1-.82-.82V274.2h1V277h2.47v-2.72l-3.15-3.82a1.31,1.31,0,0,1-.33-.86v-2.32a.78.78,0,0,1,.23-.58.81.81,0,0,1,.59-.23h2.87a.77.77,0,0,1,.58.23.78.78,0,0,1,.23.58V270h-1v-2.57h-2.47v2.41l3.17,3.81a1.3,1.3,0,0,1,.32.85Z"/><path class="cls-1" d="M189.81,277.91h-1V266.48h1Z"/><path class="cls-1" d="M199.42,277.91h-.7l-3.05-8.41v8.41h-1V266.48h.76l3,8.26v-8.26h1Z"/><path class="cls-1" d="M208.81,277.09a.81.81,0,0,1-.23.59.84.84,0,0,1-.59.23h-3a.78.78,0,0,1-.58-.23.81.81,0,0,1-.23-.59v-9.8a.79.79,0,0,1,.81-.81h3a.84.84,0,0,1,.59.23.78.78,0,0,1,.23.58V270h-1v-2.57h-2.54V277h2.54V274.2h1Z"/><path class="cls-1" d="M217.33,277.91h-3.76V266.48h3.71v.9h-2.69v4.26H217v.92h-2.45V277h2.74Z"/><path class="cls-1" d="M173.33,303.58h-2.91V291.25h-1.14v-.34l1.53-4.8h2.52Z"/><path class="cls-1" d="M190.57,302c0,1.06-.59,1.6-1.78,1.6h-6c-1.19,0-1.79-.54-1.79-1.6v-3.71h2.9v3.06h3.7v-5.26h-4.92c-1.17,0-1.76-.52-1.76-1.57v-6.79c0-1.07.59-1.6,1.76-1.6h6c1.21,0,1.81.53,1.81,1.6Zm-2.93-8.12v-5.51h-3.79v5.51Z"/><path class="cls-1" d="M207.68,302c0,1.06-.59,1.6-1.78,1.6h-6c-1.2,0-1.8-.54-1.8-1.6v-3.71h2.91v3.06h3.69v-5.26h-4.92c-1.17,0-1.75-.52-1.75-1.57v-6.79c0-1.07.58-1.6,1.75-1.6h6c1.2,0,1.8.53,1.8,1.6Zm-2.93-8.12v-5.51H201v5.51Z"/><path class="cls-1" d="M225.32,300.28h-1.51v3.3H221v-3.3H214.5v-1.55l4.91-12.62h3v.1l-4.61,11.85H221V292.8h2.82v5.26h1.51Z"/><path class="cls-1" d="M181.79,240.36a45.26,45.26,0,0,0,1.36,5.6,35.82,35.82,0,0,0,1.45,3.84,17.85,17.85,0,0,0,1.28,2.4c.38.58.65,1,.81,1.33s.18.52.06.64a2.14,2.14,0,0,1-.94.31,4.22,4.22,0,0,1-2.69-.61,11.05,11.05,0,0,1-3.17-2.69,22.44,22.44,0,0,1-3-4.84,27.77,27.77,0,0,1-2.17-7.05c-.36-1.85-.65-3.84-.87-6s-.4-4.33-.56-6.57l-2.08,1.43-2.86,1.94c-.69,2.22-1.44,4.5-2.22,6.82s-1.62,4.57-2.5,6.72-1.76,4.18-2.67,6.07a38.73,38.73,0,0,1-2.77,4.9,15.36,15.36,0,0,1-2.81,3.25,4,4,0,0,1-2.74,1.1,12.35,12.35,0,0,1-3.74-.74,5.67,5.67,0,0,1-2.25-1.51,4.62,4.62,0,0,1-1-2.15,10.47,10.47,0,0,1-.17-2.6,11.22,11.22,0,0,1,1.73-5.14,31,31,0,0,1,4-5.28,55.65,55.65,0,0,1,5.44-5.1c2-1.65,4-3.2,6-4.64.62-1.81,1.23-3.6,1.81-5.37s1.12-3.48,1.61-5.11.94-3.14,1.34-4.54.73-2.64,1-3.74q-3,1.41-6,3a47.68,47.68,0,0,0-5.32,3.24,21.24,21.24,0,0,0-3.92,3.48,6,6,0,0,0-1.63,3.55c0,.45-.22.68-.55.7a1.67,1.67,0,0,1-1.07-.39,3.75,3.75,0,0,1-1-1.25,3.35,3.35,0,0,1-.37-1.88,7.3,7.3,0,0,1,1.6-4.15,18.26,18.26,0,0,1,3.72-3.53,35.38,35.38,0,0,1,4.94-3c1.8-.91,3.56-1.74,5.29-2.51s3.32-1.44,4.76-2a19,19,0,0,0,3.3-1.68,2.09,2.09,0,0,1,.95-2.12,3.65,3.65,0,0,1,2.35-.44,5.41,5.41,0,0,1,2.5,1,3.49,3.49,0,0,1,1.46,2.18c.09.63.19,1.68.29,3.16s.19,3.22.27,5.19.17,4.11.27,6.4.21,4.56.36,6.82.3,4.39.48,6.41S181.52,238.92,181.79,240.36Zm-32.74,15.86a3.92,3.92,0,0,0,2.92-1.66,24.91,24.91,0,0,0,3.14-4.64c1.06-1.95,2.13-4.19,3.21-6.74s2.12-5.19,3.13-7.94c-1.79,1.37-3.54,2.8-5.26,4.31a62.53,62.53,0,0,0-4.64,4.47,28.2,28.2,0,0,0-3.37,4.29,8.24,8.24,0,0,0-1.4,3.81,5.91,5.91,0,0,0,.16,2,3.69,3.69,0,0,0,.67,1.43A1.81,1.81,0,0,0,149.05,256.22Zm24.17-31.33c-.13-1.8-.24-3.56-.32-5.28s-.15-3.34-.2-4.86q-.54,2.22-1.43,5.47c-.59,2.17-1.27,4.55-2,7.12l2.22-1.4Q172.44,225.31,173.22,224.89Z"/><path class="cls-1" d="M208,207.16a3.17,3.17,0,0,1,1.36,1,6.45,6.45,0,0,1,.94,1.51,5.5,5.5,0,0,1,.45,1.64,2.89,2.89,0,0,1-.11,1.36c-.09.2-.39.85-.91,2s-1.18,2.51-1.95,4.2-1.64,3.57-2.58,5.63-1.89,4.14-2.83,6.22-1.83,4.08-2.66,6-1.5,3.59-2,5a21.6,21.6,0,0,0-1.24,4.25c-.18,1.19-.34,2.14-.47,2.86a3.42,3.42,0,0,1-.52,1.45c-.2.25-.62.25-1.23,0a3.24,3.24,0,0,1-1.95-2.08,10.1,10.1,0,0,1-.45-3.75,26.76,26.76,0,0,1,.74-5q.66-2.74,1.65-5.74t2.23-6.09c.81-2.05,1.64-4,2.46-6s1.63-3.71,2.41-5.38,1.46-3.13,2.05-4.37a1.94,1.94,0,0,1-.51.08,25.76,25.76,0,0,1-3.72.23c-1.16,0-2.26,0-3.31-.1l-3-.14a17.07,17.07,0,0,0-2.77.11c-.91.12-1.57.21-2,.28s-.72.14-.93.2-.4.1-.55.12l-.72.11q-.52.07-.54-.66a3.61,3.61,0,0,1,.45-1.66,6.3,6.3,0,0,1,1.4-1.79,4,4,0,0,1,2.34-1,21,21,0,0,1,2.74-.18c.92,0,1.9,0,2.93,0s2.14,0,3.35.05,2.55,0,4-.11l2-.32.9-.15.44-.07.69-.11a.78.78,0,0,1,.43.12,1.71,1.71,0,0,1,.41.12Z"/><path class="cls-1" d="M235.36,205.62a3.17,3.17,0,0,1,1.36,1,6.45,6.45,0,0,1,.94,1.51,5.5,5.5,0,0,1,.45,1.64,2.91,2.91,0,0,1-.11,1.36l-.91,1.95c-.53,1.11-1.17,2.51-2,4.2s-1.64,3.56-2.58,5.63-1.89,4.13-2.83,6.21-1.83,4.09-2.66,6-1.5,3.59-2,5a21.6,21.6,0,0,0-1.24,4.25c-.18,1.18-.34,2.13-.47,2.86a3.48,3.48,0,0,1-.52,1.45c-.2.25-.62.25-1.23,0a3.24,3.24,0,0,1-2-2.08,10.1,10.1,0,0,1-.45-3.75,26.64,26.64,0,0,1,.74-5q.66-2.74,1.65-5.74t2.23-6.09c.81-2.06,1.64-4,2.46-6s1.63-3.71,2.41-5.38,1.46-3.13,2-4.37a2.48,2.48,0,0,1-.51.08,25.76,25.76,0,0,1-3.72.23c-1.16,0-2.26-.05-3.31-.1l-3-.14a16.09,16.09,0,0,0-2.78.11c-.91.12-1.57.21-2,.28s-.72.13-.93.19a5,5,0,0,1-.54.13l-.73.11q-.52.08-.54-.66a3.61,3.61,0,0,1,.45-1.66,6.48,6.48,0,0,1,1.4-1.79,4.06,4.06,0,0,1,2.34-1,21,21,0,0,1,2.74-.18c.92,0,1.9,0,2.93,0l3.35,0c1.2,0,2.55,0,4-.11l2-.33.9-.14.44-.07.69-.11a.78.78,0,0,1,.43.12,2.28,2.28,0,0,1,.41.11Z"/></g></g></svg>